<?xml version="1.0" encoding="utf-8"?>
<!-- Generator: Adobe Illustrator 16.0.0, SVG Export Plug-In . SVG Version: 6.00 Build 0)  -->
<!DOCTYPE svg PUBLIC "-//W3C//DTD SVG 1.1//EN" "http://www.w3.org/Graphics/SVG/1.1/DTD/svg11.dtd">
<svg version="1.1" id="Layer_1" xmlns:sketch="http://www.bohemiancoding.com/sketch/ns"
	 xmlns="http://www.w3.org/2000/svg" xmlns:xlink="http://www.w3.org/1999/xlink" x="0px" y="0px" width="40px" height="40px"
	 viewBox="0 0 40 40" enable-background="new 0 0 40 40" xml:space="preserve">
<path d="M40,40V0H0v40H40z M10.682,19.169c0.059-0.13,0.131-0.253,0.217-0.368c0.076-0.101,0.101-0.121,0.188-0.215l13-13
	c0.094-0.087,0.114-0.111,0.215-0.188c0.191-0.143,0.407-0.25,0.637-0.317c0.228-0.067,0.467-0.093,0.705-0.076
	c0.19,0.015,0.377,0.056,0.557,0.121c0.178,0.067,0.347,0.159,0.5,0.272C27.199,5.773,27.5,6.375,27.5,7
	c0,0.382-0.111,0.76-0.318,1.081c-0.078,0.122-0.17,0.228-0.268,0.333L15.328,20l11.586,11.586l0.098,0.104
	c0.079,0.1,0.102,0.123,0.17,0.229c0.129,0.2,0.223,0.423,0.272,0.656c0.041,0.186,0.054,0.378,0.041,0.567
	c-0.038,0.525-0.287,1.024-0.685,1.368c-0.145,0.125-0.307,0.229-0.479,0.308c-0.173,0.08-0.358,0.135-0.546,0.162
	c-0.126,0.018-0.158,0.015-0.285,0.02c-0.048-0.002-0.096-0.003-0.143-0.005c-0.144-0.017-0.282-0.035-0.42-0.076
	c-0.229-0.067-0.445-0.175-0.637-0.317c-0.101-0.076-0.121-0.101-0.215-0.188l-13-13c-0.033-0.035-0.066-0.068-0.098-0.104
	c-0.094-0.108-0.176-0.227-0.243-0.353C10.445,20.41,10.421,19.738,10.682,19.169z"/>
</svg>
