<?xml version="1.0" encoding="utf-8"?>
<!-- Generator: Adobe Illustrator 16.0.0, SVG Export Plug-In . SVG Version: 6.00 Build 0)  -->
<!DOCTYPE svg PUBLIC "-//W3C//DTD SVG 1.1//EN" "http://www.w3.org/Graphics/SVG/1.1/DTD/svg11.dtd">
<svg version="1.1" id="Layer_1" xmlns:sketch="http://www.bohemiancoding.com/sketch/ns"
	 xmlns="http://www.w3.org/2000/svg" xmlns:xlink="http://www.w3.org/1999/xlink" x="0px" y="0px" width="40px" height="40px"
	 viewBox="0 0 40 40" enable-background="new 0 0 40 40" xml:space="preserve">
<path d="M0,0v40h40V0H0z M29.255,20.958c-0.067,0.126-0.149,0.244-0.243,0.353c-0.031,0.035-0.064,0.068-0.098,0.104l-13,13
	c-0.094,0.087-0.114,0.111-0.215,0.188c-0.191,0.143-0.407,0.25-0.637,0.317c-0.138,0.041-0.276,0.06-0.42,0.076
	C14.596,34.997,14.548,34.998,14.5,35c-0.127-0.005-0.159-0.002-0.285-0.02c-0.188-0.027-0.373-0.082-0.546-0.162
	c-0.173-0.078-0.335-0.183-0.479-0.308c-0.397-0.344-0.646-0.843-0.685-1.368c-0.013-0.189,0-0.382,0.041-0.567
	c0.05-0.233,0.144-0.456,0.272-0.656c0.068-0.106,0.091-0.13,0.17-0.229l0.098-0.104L24.672,20L13.086,8.414
	c-0.098-0.105-0.189-0.211-0.268-0.333C12.611,7.76,12.5,7.382,12.5,7c0-0.625,0.301-1.227,0.801-1.602
	c0.153-0.113,0.322-0.205,0.5-0.272c0.18-0.065,0.366-0.106,0.557-0.121c0.238-0.017,0.478,0.009,0.705,0.076
	c0.229,0.067,0.445,0.175,0.637,0.317c0.101,0.076,0.121,0.101,0.215,0.188l13,13c0.087,0.094,0.111,0.114,0.188,0.215
	c0.086,0.115,0.158,0.238,0.217,0.368C29.579,19.738,29.555,20.41,29.255,20.958z"/>
</svg>
