<?xml version="1.0" encoding="utf-8"?>
<!-- Generator: Adobe Illustrator 16.0.0, SVG Export Plug-In . SVG Version: 6.00 Build 0)  -->
<!DOCTYPE svg PUBLIC "-//W3C//DTD SVG 1.1//EN" "http://www.w3.org/Graphics/SVG/1.1/DTD/svg11.dtd">
<svg version="1.1" id="Layer_1" xmlns:sketch="http://www.bohemiancoding.com/sketch/ns"
	 xmlns="http://www.w3.org/2000/svg" xmlns:xlink="http://www.w3.org/1999/xlink" x="0px" y="0px" width="40px" height="40px"
	 viewBox="0 0 40 40" enable-background="new 0 0 40 40" xml:space="preserve">
<path d="M0,0v40h40V0H0z M34.414,31.586c0.781,0.781,0.781,2.047,0,2.828C34.023,34.805,33.512,35,33,35s-1.023-0.195-1.414-0.586
	L20,22.828L8.414,34.414C8.024,34.805,7.512,35,7,35s-1.024-0.195-1.414-0.586c-0.781-0.781-0.781-2.047,0-2.828L17.172,20
	L5.586,8.414c-0.781-0.781-0.781-2.047,0-2.828c0.78-0.781,2.048-0.781,2.828,0L20,17.172L31.586,5.586
	c0.781-0.781,2.047-0.781,2.828,0c0.781,0.781,0.781,2.047,0,2.828L22.828,20L34.414,31.586z"/>
</svg>
