<?xml version="1.0" standalone="no"?><!DOCTYPE svg PUBLIC "-//W3C//DTD SVG 1.1//EN" "http://www.w3.org/Graphics/SVG/1.1/DTD/svg11.dtd"><svg width="100%" height="100%" viewBox="0 0 34 34" version="1.1" xmlns="http://www.w3.org/2000/svg" xmlns:xlink="http://www.w3.org/1999/xlink" xml:space="preserve" style="fill-rule:evenodd;clip-rule:evenodd;stroke-linecap:round;stroke-linejoin:round;stroke-miterlimit:1.41421;"><path d="M32,32l-8.658,0l0,-13.171l4.122,0l0.188,-3.971l-4.31,0l0,-2.9c0,-1.095 0.229,-1.754 1.66,-1.754c1.323,0 2.535,0.012 2.535,0.012l0.093,-3.708c0,0 -1.188,-0.154 -2.795,-0.154c-3.969,0 -5.692,2.447 -5.692,5.112c0,1.764 0,3.392 0,3.392l-2.916,0l0,3.971l2.916,0l0,13.171l-17.143,0l0,-30l30,0l0,30Z" style="fill:none;stroke-width:2px;stroke:#2a5d61;"/></svg>