<?xml version="1.0" standalone="no"?><!DOCTYPE svg PUBLIC "-//W3C//DTD SVG 1.1//EN" "http://www.w3.org/Graphics/SVG/1.1/DTD/svg11.dtd"><svg width="100%" height="100%" viewBox="0 0 30 26" version="1.1" xmlns="http://www.w3.org/2000/svg" xmlns:xlink="http://www.w3.org/1999/xlink" xml:space="preserve" style="fill-rule:evenodd;clip-rule:evenodd;stroke-linejoin:round;stroke-miterlimit:1.41421;"><path d="M2,4.061l0,17.874" style="fill:none;stroke-width:2px;stroke:#2a5d61;"/><path d="M28,21.935l0,-17.874" style="fill:none;stroke-width:2px;stroke:#2a5d61;"/><path d="M13.73,14.531c0.74,0.625 1.8,0.625 2.54,0c2.366,-1.999 7.533,-6.362 11.098,-9.374c0.562,-0.475 0.776,-1.265 0.533,-1.974c-0.242,-0.709 -0.888,-1.183 -1.612,-1.183c-6.085,0 -16.493,0 -22.578,0c-0.724,0 -1.37,0.474 -1.612,1.183c-0.243,0.709 -0.029,1.499 0.533,1.974c3.565,3.012 8.732,7.375 11.098,9.374Z" style="fill:none;stroke-width:2px;stroke-linecap:round;stroke:#2a5d61;"/><path d="M13,14c0,0 -7.924,5.126 -10.321,6.676c-0.423,0.274 -0.679,0.744 -0.679,1.248c0,0 0,0 0,0c0,0.142 0.015,0.28 0.048,0.416c0.008,0.026 0.019,0.046 0.027,0.074c0.032,0.108 0.064,0.213 0.116,0.317c0.007,0.01 0.015,0.016 0.019,0.027c0.119,0.233 0.286,0.449 0.504,0.634c0.104,0.088 0.221,0.166 0.337,0.237c0.008,0.006 0.016,0.01 0.024,0.013c0.115,0.068 0.234,0.118 0.357,0.165c0.02,0.011 0.04,0.02 0.06,0.027c0.115,0.044 0.237,0.071 0.36,0.098c0.032,0.007 0.064,0.017 0.096,0.024c0.162,0.027 0.325,0.044 0.487,0.044l21.125,0c0.166,0 0.329,-0.017 0.488,-0.044c0.032,-0.007 0.063,-0.017 0.095,-0.024c0.123,-0.027 0.25,-0.054 0.365,-0.098c0.019,-0.007 0.04,-0.016 0.059,-0.027c0.123,-0.047 0.243,-0.101 0.353,-0.165c0.009,-0.003 0.021,-0.01 0.024,-0.013c0.12,-0.071 0.234,-0.149 0.341,-0.237c0.214,-0.185 0.381,-0.398 0.501,-0.627c0.007,-0.014 0.015,-0.024 0.019,-0.034c0.052,-0.101 0.083,-0.209 0.119,-0.317c0.004,-0.028 0.016,-0.048 0.024,-0.074c0.032,-0.136 0.052,-0.274 0.052,-0.416c0,0 0,0 0,0c0,-0.504 -0.256,-0.974 -0.679,-1.248c-2.397,-1.55 -10.321,-6.676 -10.321,-6.676" style="fill:none;stroke-width:2px;stroke-linecap:round;stroke:#2a5d61;"/></svg>