<?xml version="1.0" standalone="no"?><!DOCTYPE svg PUBLIC "-//W3C//DTD SVG 1.1//EN" "http://www.w3.org/Graphics/SVG/1.1/DTD/svg11.dtd"><svg width="100%" height="100%" viewBox="0 0 30 26" version="1.1" xmlns="http://www.w3.org/2000/svg" xmlns:xlink="http://www.w3.org/1999/xlink" xml:space="preserve" style="fill-rule:evenodd;clip-rule:evenodd;stroke-linejoin:round;stroke-miterlimit:1.41421;"><path d="M27.285,2.604c-0.46,-0.389 -1.074,-0.604 -1.725,-0.604l-21.125,0c-0.65,0 -1.261,0.215 -1.721,0.604c-0.46,0.389 -0.714,0.907 -0.714,1.457l0,17.874c0,0.141 0.015,0.278 0.048,0.413c0.008,0.027 0.019,0.047 0.027,0.074c0.032,0.108 0.064,0.212 0.116,0.316c0.007,0.01 0.015,0.016 0.019,0.026c0.119,0.232 0.286,0.447 0.504,0.631c0.104,0.088 0.221,0.165 0.337,0.235c0.008,0.007 0.016,0.011 0.024,0.013c0.115,0.068 0.234,0.118 0.357,0.165c0.02,0.011 0.04,0.02 0.06,0.027c0.115,0.044 0.237,0.07 0.36,0.097c0.032,0.007 0.064,0.017 0.096,0.024c0.162,0.027 0.325,0.044 0.487,0.044l21.125,0c0.166,0 0.329,-0.017 0.488,-0.044c0.032,-0.007 0.063,-0.017 0.095,-0.024c0.123,-0.027 0.25,-0.053 0.365,-0.097c0.019,-0.007 0.04,-0.016 0.059,-0.027c0.123,-0.047 0.243,-0.1 0.353,-0.165c0.009,-0.002 0.021,-0.009 0.024,-0.013c0.12,-0.07 0.234,-0.147 0.341,-0.235c0.214,-0.184 0.381,-0.396 0.501,-0.624c0.007,-0.014 0.015,-0.023 0.019,-0.033c0.052,-0.101 0.083,-0.208 0.119,-0.316c0.004,-0.027 0.016,-0.047 0.024,-0.074c0.032,-0.135 0.052,-0.272 0.052,-0.413l0,-17.874c0,-0.55 -0.254,-1.068 -0.715,-1.457Z" style="fill:none;stroke-width:2px;stroke:#000;"/><path d="M13,14.052c0,0 -7.929,5.103 -10.324,6.643c-0.421,0.271 -0.676,0.738 -0.676,1.24c0,0 0,0 0,0c0,0.141 0.015,0.278 0.048,0.413c0.008,0.027 0.019,0.047 0.027,0.074c0.032,0.108 0.064,0.212 0.116,0.316c0.007,0.01 0.015,0.016 0.019,0.026c0.119,0.232 0.286,0.447 0.504,0.631c0.104,0.088 0.221,0.165 0.337,0.235c0.008,0.007 0.016,0.011 0.024,0.013c0.115,0.068 0.234,0.118 0.357,0.165c0.02,0.011 0.04,0.02 0.06,0.027c0.115,0.044 0.237,0.07 0.36,0.097c0.032,0.007 0.064,0.017 0.096,0.024c0.162,0.027 0.325,0.044 0.487,0.044l21.125,0c0.166,0 0.329,-0.017 0.488,-0.044c0.032,-0.007 0.063,-0.017 0.095,-0.024c0.123,-0.027 0.25,-0.053 0.365,-0.097c0.019,-0.007 0.04,-0.016 0.059,-0.027c0.123,-0.047 0.243,-0.1 0.353,-0.165c0.009,-0.002 0.021,-0.009 0.024,-0.013c0.12,-0.07 0.234,-0.147 0.341,-0.235c0.214,-0.184 0.381,-0.396 0.501,-0.624c0.007,-0.014 0.015,-0.023 0.019,-0.033c0.052,-0.101 0.083,-0.208 0.119,-0.316c0.004,-0.027 0.016,-0.047 0.024,-0.074c0.032,-0.135 0.052,-0.272 0.052,-0.413c0,0 0,0 0,0c0,-0.502 -0.255,-0.969 -0.676,-1.24c-2.395,-1.54 -10.324,-6.643 -10.324,-6.643" style="fill:none;stroke-width:2px;stroke-linecap:round;stroke:#000;"/><path d="M13.69,13.872c0.752,0.653 1.868,0.653 2.62,0c2.267,-1.965 6.99,-6.061 10.249,-8.888c0.536,-0.465 0.727,-1.214 0.479,-1.878c-0.248,-0.665 -0.883,-1.106 -1.593,-1.106c-5.653,0 -15.237,0 -20.89,0c-0.71,0 -1.345,0.441 -1.593,1.106c-0.248,0.664 -0.057,1.413 0.479,1.878c3.259,2.827 7.982,6.923 10.249,8.888Z" style="fill:none;stroke-width:2px;stroke-linecap:round;stroke:#000;"/></svg>