<?xml version="1.0" standalone="no"?><!DOCTYPE svg PUBLIC "-//W3C//DTD SVG 1.1//EN" "http://www.w3.org/Graphics/SVG/1.1/DTD/svg11.dtd"><svg width="100%" height="100%" viewBox="0 0 26 26" version="1.1" xmlns="http://www.w3.org/2000/svg" xmlns:xlink="http://www.w3.org/1999/xlink" xml:space="preserve" style="fill-rule:evenodd;clip-rule:evenodd;stroke-linejoin:round;stroke-miterlimit:1.41421;"><path d="M23.282,3.777l-0.617,-0.618c-0.761,-0.759 -1.861,-1.163 -3.179,-1.163c-3.26,0 -7.623,2.339 -11.389,6.105c-5.468,5.466 -7.637,11.867 -4.94,14.565l0.616,0.618c0.463,0.46 1.073,0.712 1.728,0.712c0.65,0 1.264,-0.252 1.724,-0.712l2.471,-2.473c0.953,-0.947 0.953,-2.496 0,-3.447l-0.617,-0.618c-0.658,-0.658 -0.355,-2.368 2.472,-5.198c2.405,-2.405 3.8,-2.764 4.417,-2.764c0.325,0 0.58,0.097 0.778,0.295l0.617,0.618c0.922,0.92 2.532,0.924 3.451,0l2.468,-2.469c0.463,-0.461 0.718,-1.076 0.718,-1.728c0,-0.651 -0.255,-1.263 -0.718,-1.723Z" style="fill:none;stroke-width:2px;stroke:#6c6c6c;"/></svg>