<?xml version="1.0" standalone="no"?><!DOCTYPE svg PUBLIC "-//W3C//DTD SVG 1.1//EN" "http://www.w3.org/Graphics/SVG/1.1/DTD/svg11.dtd"><svg width="100%" height="100%" viewBox="0 0 26 26" version="1.1" xmlns="http://www.w3.org/2000/svg" xmlns:xlink="http://www.w3.org/1999/xlink" xml:space="preserve" style="fill-rule:evenodd;clip-rule:evenodd;stroke-linejoin:round;stroke-miterlimit:1.41421;"><path d="M22.919,3.743l-0.607,-0.606c-0.748,-0.745 -1.829,-1.141 -3.125,-1.141c-3.204,0 -7.493,2.295 -11.194,5.99c-5.375,5.363 -7.507,11.644 -4.856,14.29l0.606,0.607c0.455,0.451 1.055,0.699 1.698,0.699c0.64,0 1.243,-0.248 1.694,-0.699l2.43,-2.426c0.936,-0.93 0.936,-2.449 0,-3.383l-0.607,-0.606c-0.646,-0.646 -0.349,-2.324 2.43,-5.1c2.364,-2.36 3.735,-2.712 4.342,-2.712c0.319,0 0.569,0.095 0.764,0.289l0.607,0.607c0.906,0.903 2.489,0.906 3.392,0l2.426,-2.423c0.455,-0.452 0.705,-1.055 0.705,-1.695c0,-0.639 -0.25,-1.239 -0.705,-1.691Z" style="fill:none;stroke-width:2px;stroke:#000;"/></svg>