<?xml version="1.0" standalone="no"?><!DOCTYPE svg PUBLIC "-//W3C//DTD SVG 1.1//EN" "http://www.w3.org/Graphics/SVG/1.1/DTD/svg11.dtd"><svg width="100%" height="100%" viewBox="0 0 40 30" version="1.1" xmlns="http://www.w3.org/2000/svg" xmlns:xlink="http://www.w3.org/1999/xlink" xml:space="preserve" style="fill-rule:evenodd;clip-rule:evenodd;stroke-linejoin:round;stroke-miterlimit:1.41421;"><clipPath id="_clip1"><rect id="flag-en" x="0" y="0" width="40" height="30"/></clipPath><g clip-path="url(#_clip1)"><rect x="-2.843" y="0" width="45.686" height="30" style="fill:#084ca1;fill-rule:nonzero;"/><path d="M37.127,0l-11.902,7.805l0,-7.805l-10.482,0l0,8.126l-12.581,-8.126l-5.005,0l0,4.057l9.023,5.855l-9.023,0l0,10.393l8.95,0l-8.95,5.898l0,3.797l5.921,0l11.665,-7.677l0,7.677l10.482,0l0,-7.812l12.051,7.812l5.567,0l0,-3.754l-9.17,-5.941l9.17,0l0,-10.393l-9.124,0l9.124,-6l0,-3.912l-5.716,0Z" style="fill:#fff;fill-rule:nonzero;"/><path d="M-2.843,0l0,2.616l10.988,7.296l3.719,0l-14.707,-9.912Z" style="fill:#ed1c24;fill-rule:nonzero;"/><path d="M11.718,20.305l-14.561,9.695l3.487,0l14.099,-9.218l0,-0.477l-3.025,0Z" style="fill:#ed1c24;fill-rule:nonzero;"/><path d="M39.512,0l-14.287,9.3l0,0.612l2.817,0l14.801,-9.67l0,-0.242l-3.331,0Z" style="fill:#ed1c24;fill-rule:nonzero;"/><path d="M16.989,0l0,12.118l-19.832,0l0,5.982l19.832,0l0,11.9l5.99,0l0,-11.9l19.864,0l0,-5.982l-19.864,0l0,-12.118l-5.99,0Z" style="fill:#ed1c24;fill-rule:nonzero;"/><path d="M28.157,20.305l14.686,9.695l0,-2.434l-10.967,-7.261l-3.719,0Z" style="fill:#ed1c24;fill-rule:nonzero;"/></g></svg>