<?xml version="1.0" standalone="no"?><!DOCTYPE svg PUBLIC "-//W3C//DTD SVG 1.1//EN" "http://www.w3.org/Graphics/SVG/1.1/DTD/svg11.dtd"><svg width="100%" height="100%" viewBox="0 0 127 121" version="1.1" xmlns="http://www.w3.org/2000/svg" xmlns:xlink="http://www.w3.org/1999/xlink" xml:space="preserve" style="fill-rule:evenodd;clip-rule:evenodd;stroke-linecap:round;stroke-linejoin:round;stroke-miterlimit:1.41421;"><clipPath id="_clip1"><rect id="hammer" x="0.753" y="0.079" width="125.946" height="120"/></clipPath><g clip-path="url(#_clip1)"><ellipse cx="18.203" cy="93.379" rx="15.45" ry="2.8" style="fill:#6aaeb6;"/><path d="M121.653,101.479c3.1,3.1 4,7.1 2.1,9l-6.3,6.4c-1.9,1.9 -5.9,0.9 -9,-2.1l-60.6,-63.9c-3.1,-3.1 -4,-7.1 -2.1,-9l3,-3c1.9,-1.9 5.9,-0.9 9,2.1l63.9,60.5Z" style="fill:#edab61;fill-rule:nonzero;stroke-width:4px;stroke:#25393c;"/><path d="M61.153,9.379l-42.1,42.1l-11.5,-11.5l33.8,-33.8l19.8,3.2Z" style="fill:#6aaeb6;fill-rule:nonzero;stroke-width:4px;stroke:#25393c;"/><path d="M38.953,39.979l8,-8" style="fill:#ffab00;fill-rule:nonzero;stroke-width:4px;stroke:#25393c;"/><path d="M95.753,118.079l26,0" style="fill:#ffab00;fill-rule:nonzero;stroke-width:4px;stroke:#25393c;"/><path d="M33.653,93.379c0,1.5 -6.9,2.8 -15.4,2.8c-8.6,0 -15.5,-1.3 -15.5,-2.8" style="fill:none;stroke-width:4px;stroke:#25393c;"/><path d="M12.753,103.079l11,0" style="fill:#ffab00;fill-rule:nonzero;stroke-width:4px;stroke:#25393c;"/><path d="M12.753,110.079l11,0" style="fill:#ffab00;fill-rule:nonzero;stroke-width:4px;stroke:#25393c;"/><path d="M12.753,117.079l11,0" style="fill:#ffab00;fill-rule:nonzero;stroke-width:4px;stroke:#25393c;"/><path d="M30.753,52.079l0,25" style="fill:#ffab00;fill-rule:nonzero;stroke-width:4px;stroke:#355b60;"/><path d="M6.753,2.079l0,26" style="fill:#ffab00;fill-rule:nonzero;stroke-width:4px;stroke:#355b60;"/><path d="M15.753,6.079l0,15" style="fill:#ffab00;fill-rule:nonzero;stroke-width:4px;stroke:#355b60;"/></g></svg>