<?xml version="1.0" standalone="no"?><!DOCTYPE svg PUBLIC "-//W3C//DTD SVG 1.1//EN" "http://www.w3.org/Graphics/SVG/1.1/DTD/svg11.dtd"><svg width="100%" height="100%" viewBox="0 0 131 121" version="1.1" xmlns="http://www.w3.org/2000/svg" xmlns:xlink="http://www.w3.org/1999/xlink" xml:space="preserve" style="fill-rule:evenodd;clip-rule:evenodd;stroke-linecap:round;stroke-linejoin:round;stroke-miterlimit:1.41421;"><path d="M97.583,17.569l28.617,0l0,100.881l-65.042,0l0,-27.025l-57.055,0l0,-73.856l29.076,0" style="fill:#6aaeb6;stroke-width:4px;stroke:#25393c;"/><path d="M33.179,91.425l44,0l0,-39l-22,0" style="fill:#355b60;fill-rule:nonzero;stroke-width:4px;stroke:#25393c;"/><path d="M6.179,91.425l23,0l0,-39l-11,0" style="fill:#355b60;fill-rule:nonzero;stroke-width:4px;stroke:#25393c;"/><path d="M80.179,91.425l23,0l0,-26" style="fill:#355b60;fill-rule:nonzero;stroke-width:4px;stroke:#25393c;"/><path d="M101.779,52.425l-24.6,0" style="fill:#6aaeb6;fill-rule:nonzero;stroke-width:4px;stroke:#25393c;"/><path d="M37.079,52.425l-8.9,0" style="fill:#6aaeb6;fill-rule:nonzero;stroke-width:4px;stroke:#25393c;"/><rect x="61.178" y="91.425" width="42.001" height="27.025" style="fill:#6aaeb6;stroke-width:4px;stroke:#25393c;"/><rect x="41.54" y="63.454" width="19.638" height="27.971" style="fill:#edab61;stroke-width:4px;stroke:#25393c;"/><path d="M4.103,73.935c9.653,0 17.489,7.837 17.489,17.49l-17.489,0l0,-17.49Z" style="fill:#edab61;stroke-width:3.21px;stroke:#25393c;"/><path d="M94.179,92.425l0,25" style="fill:none;stroke-width:4px;stroke:#25393c;"/><path d="M82.179,92.425l0,25" style="fill:none;stroke-width:4px;stroke:#25393c;"/><path d="M70.179,92.425l0,25" style="fill:none;stroke-width:4px;stroke:#25393c;"/><path d="M59.879,4.425l-12.3,12.2l-11.2,29.4l29.2,-11.4l30.6,-30.7" style="fill:#f5cd92;stroke-width:4px;stroke:#25393c;"/><path d="M41.668,32.143l-5.289,13.882l13.788,-5.383l-8.499,-8.499Z" style="fill:#edab61;stroke-width:4px;stroke:#25393c;"/><path d="M56.681,25.725l8.898,8.9" style="fill:#f5cd92;fill-rule:nonzero;stroke-width:4px;stroke:#25393c;"/><path d="M59.879,4.425l-12.3,12.2l9.1,9.1l22.2,-22.2" style="fill:#edab61;fill-rule:nonzero;stroke-width:4px;stroke:#25393c;"/></svg>