<?xml version="1.0" encoding="iso-8859-1"?>
<!DOCTYPE svg PUBLIC "-//W3C//DTD SVG 1.1//EN" "http://www.w3.org/Graphics/SVG/1.1/DTD/svg11.dtd">
<svg version="1.1" id="Layer_1" xmlns="http://www.w3.org/2000/svg" xmlns:xlink="http://www.w3.org/1999/xlink" x="0px" y="0px"
	 width="40px" height="40px" viewBox="0 0 40 40" style="enable-background:new 0 0 40 40;" xml:space="preserve">
<rect style="fill:#3C5A98;" width="40" height="40"/>
<rect x="2.857" y="31.429" style="fill:#6D84B3;" width="34.286" height="5.714"/>
<path style="fill:#FFFFFF;" d="M22.857,37.143V22.438h-3.888v-5.294h3.888c0,0,0-2.17,0-4.522c0-3.554,2.297-6.817,7.589-6.817
	c2.143,0,3.728,0.206,3.728,0.206l-0.125,4.944c0,0-1.616-0.016-3.379-0.016c-1.909,0-2.214,0.879-2.214,2.339
	c0,1.154,0-2.459,0,3.866h5.746l-0.25,5.294h-5.496v14.705H22.857z"/>
</svg>
