<?xml version="1.0" standalone="no"?><!DOCTYPE svg PUBLIC "-//W3C//DTD SVG 1.1//EN" "http://www.w3.org/Graphics/SVG/1.1/DTD/svg11.dtd"><svg width="100%" height="100%" viewBox="0 0 261 131" version="1.1" xmlns="http://www.w3.org/2000/svg" xmlns:xlink="http://www.w3.org/1999/xlink" xml:space="preserve" style="fill-rule:evenodd;clip-rule:evenodd;stroke-linejoin:round;stroke-miterlimit:1.41421;"><path d="M183.936,22.179l12.7,-18.9l11.4,18.1" style="fill:#6aaeb6;fill-rule:nonzero;stroke-width:4px;stroke:#25393c;"/><rect x="168.636" y="30.079" width="56" height="98" style="fill:#6aaeb6;stroke-width:4px;stroke-linecap:round;stroke:#25393c;"/><rect x="175.136" y="39.079" width="10.5" height="9.5" style="fill:#f5cd92;fill-rule:nonzero;"/><rect x="175.136" y="58.079" width="10.5" height="9.5" style="fill:#f5cd92;fill-rule:nonzero;"/><rect x="175.136" y="76.079" width="10.5" height="10.5" style="fill:#f5cd92;fill-rule:nonzero;"/><rect x="175.136" y="95.079" width="10.5" height="9.5" style="fill:#f5cd92;fill-rule:nonzero;"/><rect x="191.136" y="39.079" width="10.5" height="9.5" style="fill:#f5cd92;fill-rule:nonzero;"/><rect x="191.136" y="58.079" width="10.5" height="9.5" style="fill:#f5cd92;fill-rule:nonzero;"/><rect x="191.136" y="76.079" width="10.5" height="10.5" style="fill:#f5cd92;fill-rule:nonzero;"/><rect x="191.136" y="95.079" width="10.5" height="9.5" style="fill:#f5cd92;fill-rule:nonzero;"/><rect x="208.136" y="39.079" width="10.5" height="9.5" style="fill:#f5cd92;fill-rule:nonzero;"/><rect x="208.136" y="58.079" width="10.5" height="9.5" style="fill:#f5cd92;fill-rule:nonzero;"/><rect x="208.136" y="76.079" width="10.5" height="10.5" style="fill:#f5cd92;fill-rule:nonzero;"/><rect x="208.136" y="95.079" width="10.5" height="9.5" style="fill:#f5cd92;fill-rule:nonzero;"/><path d="M185.636,48.579l-10.5,0l0,-9.5" style="fill:none;stroke-width:4px;stroke-linecap:round;stroke:#25393c;"/><path d="M185.636,48.579l-10.5,0l0,-9.5" style="fill:none;stroke-width:4px;stroke-linecap:round;stroke:#25393c;"/><path d="M201.636,48.579l-10.5,0l0,-9.5" style="fill:none;stroke-width:4px;stroke-linecap:round;stroke:#25393c;"/><path d="M217.636,48.579l-9.5,0l0,-9.5" style="fill:none;stroke-width:4px;stroke-linecap:round;stroke:#25393c;"/><path d="M185.636,67.579l-10.5,0l0,-9.5" style="fill:none;stroke-width:4px;stroke-linecap:round;stroke:#25393c;"/><path d="M201.636,67.579l-10.5,0l0,-9.5" style="fill:none;stroke-width:4px;stroke-linecap:round;stroke:#25393c;"/><path d="M217.636,67.579l-9.5,0l0,-9.5" style="fill:none;stroke-width:4px;stroke-linecap:round;stroke:#25393c;"/><path d="M185.636,86.579l-10.5,0l0,-10.5" style="fill:none;stroke-width:4px;stroke-linecap:round;stroke:#25393c;"/><path d="M201.636,86.579l-10.5,0l0,-10.5" style="fill:none;stroke-width:4px;stroke-linecap:round;stroke:#25393c;"/><path d="M217.636,86.579l-9.5,0l0,-10.5" style="fill:none;stroke-width:4px;stroke-linecap:round;stroke:#25393c;"/><path d="M185.636,104.579l-10.5,0l0,-9.5" style="fill:none;stroke-width:4px;stroke-linecap:round;stroke:#25393c;"/><path d="M201.636,104.579l-10.5,0l0,-9.5" style="fill:none;stroke-width:4px;stroke-linecap:round;stroke:#25393c;"/><path d="M217.636,104.579l-9.5,0l0,-9.5" style="fill:none;stroke-width:4px;stroke-linecap:round;stroke:#25393c;"/><path d="M175.136,124.079l0,-10" style="fill:#6aaeb6;fill-rule:nonzero;stroke-width:4px;stroke-linecap:round;stroke:#25393c;"/><path d="M218.136,124.079l0,-10" style="fill:#6aaeb6;fill-rule:nonzero;stroke-width:4px;stroke-linecap:round;stroke:#25393c;"/><rect x="190.636" y="111.079" width="12" height="17" style="fill:#edab61;stroke-width:4px;stroke-linecap:round;stroke:#25393c;"/><rect x="144.636" y="83.079" width="24" height="45" style="fill:#f5cd92;stroke-width:4px;stroke-linecap:round;stroke:#25393c;"/><rect x="224.636" y="83.079" width="24" height="45" style="fill:#f5cd92;stroke-width:4px;stroke-linecap:round;stroke:#25393c;"/><rect x="176.636" y="21.079" width="40" height="9" style="fill:#edab61;stroke-width:4px;stroke-linecap:round;stroke:#25393c;"/><path d="M144.636,94.329l24,0" style="fill:#6aaeb6;stroke-width:4px;stroke-linecap:round;stroke:#25393c;"/><path d="M224.636,94.329l24,0" style="fill:#6aaeb6;stroke-width:4px;stroke-linecap:round;stroke:#25393c;"/><path d="M144.636,105.464l24,0" style="fill:#6aaeb6;stroke-width:4px;stroke-linecap:round;stroke:#25393c;"/><path d="M224.636,105.464l24,0" style="fill:#6aaeb6;stroke-width:4px;stroke-linecap:round;stroke:#25393c;"/><path d="M144.636,116.829l24,0" style="fill:#6aaeb6;stroke-width:4px;stroke-linecap:round;stroke:#25393c;"/><path d="M224.636,116.829l24,0" style="fill:#6aaeb6;stroke-width:4px;stroke-linecap:round;stroke:#25393c;"/><path d="M156.636,83.079l0,45" style="fill:#6aaeb6;stroke-width:4px;stroke-linecap:round;stroke:#25393c;"/><path d="M236.636,83.079l0,45" style="fill:#6aaeb6;stroke-width:4px;stroke-linecap:round;stroke:#25393c;"/><path d="M80.609,95.079l13,0l0,16l10,0l0,8l6,0l0,-41l11,0l0,38l5,0l0,12l-45,0l0,-33Z" style="fill:#6aaeb6;fill-rule:nonzero;"/><path d="M18.609,72.397l0,-22.818l10,0l0,14.25l-10,8.568Z" style="fill:#6aaeb6;fill-rule:nonzero;"/><path d="M7.009,113.079l3.6,0l0,-8l8,0l0,23l-11.6,0l0,-15Z" style="fill:#6aaeb6;fill-rule:nonzero;"/><path d="M80.609,82.079l0,46l-62,0l0,-46" style="fill:#f5cd92;fill-rule:nonzero;stroke-width:4px;stroke-linecap:round;stroke:#25393c;"/><rect x="28.609" y="96.079" width="19" height="32" style="fill:#edab61;stroke-width:4px;stroke-linecap:round;stroke:#25393c;"/><circle cx="64.509" cy="103.679" r="7.9" style="fill:#fff;stroke-width:4px;stroke-linecap:round;stroke:#25393c;"/><path d="M64.509,95.779l0,15.8" style="fill:#f5cd92;stroke-width:4px;stroke-linecap:round;stroke:#25393c;"/><path d="M72.409,103.679l-15.8,0" style="fill:#f5cd92;stroke-width:4px;stroke-linecap:round;stroke:#25393c;"/><path d="M18.609,70.579l0,-21l10,0" style="fill:#6aaeb6;fill-rule:nonzero;stroke-width:4px;stroke-linecap:round;stroke:#25393c;"/><path d="M7.009,113.079l3.6,0l0,-8l6,0" style="fill:none;stroke-width:4px;stroke-linecap:round;stroke:#25393c;"/><path d="M7.009,82.079l42.8,-36.5l42.7,36.5" style="fill:#6aaeb6;fill-rule:nonzero;stroke-width:4px;stroke-linecap:round;stroke:#25393c;"/><path d="M82.609,95.079l11,0l0,16l10,0l0,8l6,0l0,-41l11,0l0,38l5,0l0,4" style="fill:none;stroke-width:4px;stroke-linecap:round;stroke:#25393c;"/><path d="M7.009,128.079l118.6,0" style="fill:#f5cd92;stroke-width:4px;stroke-linecap:round;stroke:#25393c;"/></svg>