<?xml version="1.0" standalone="no"?><!DOCTYPE svg PUBLIC "-//W3C//DTD SVG 1.1//EN" "http://www.w3.org/Graphics/SVG/1.1/DTD/svg11.dtd"><svg width="100%" height="100%" viewBox="0 0 131 111" version="1.1" xmlns="http://www.w3.org/2000/svg" xmlns:xlink="http://www.w3.org/1999/xlink" xml:space="preserve" style="fill-rule:evenodd;clip-rule:evenodd;stroke-linecap:round;stroke-linejoin:round;stroke-miterlimit:1.41421;"><rect x="5.662" y="18.525" width="119.9" height="91.7" style="fill:#355b60;"/><rect x="5.662" y="18.525" width="119.9" height="31.7" style="fill:#edab61;"/><path d="M32.262,72.225c0,6.8 -6.2,12.3 -13.8,12.3c-7.6,0 -13.8,-5.5 -13.8,-12.3" style="fill:#6aaeb6;fill-rule:nonzero;stroke-width:4px;stroke:#25393c;"/><path d="M59.862,72.225c0,6.8 -6.2,12.3 -13.8,12.3c-7.6,0 -13.8,-5.5 -13.8,-12.3" style="fill:#6aaeb6;fill-rule:nonzero;stroke-width:4px;stroke:#25393c;"/><path d="M87.562,72.225c0,6.8 -6.2,12.3 -13.8,12.3c-7.6,0 -13.8,-5.5 -13.8,-12.3" style="fill:#6aaeb6;fill-rule:nonzero;stroke-width:4px;stroke:#25393c;"/><path d="M115.262,72.225c0,6.8 -6.2,12.3 -13.8,12.3c-7.6,0 -13.8,-5.5 -13.8,-12.3" style="fill:#6aaeb6;fill-rule:nonzero;stroke-width:4px;stroke:#25393c;"/><path d="M70.262,50.225c0,6.8 -6.2,12.3 -13.8,12.3c-7.6,0 -13.8,-5.5 -13.8,-12.3" style="fill:#6aaeb6;fill-rule:nonzero;stroke-width:4px;stroke:#25393c;"/><path d="M97.862,50.225c0,6.8 -6.2,12.3 -13.8,12.3c-7.6,0 -13.8,-5.5 -13.8,-12.3" style="fill:#6aaeb6;fill-rule:nonzero;stroke-width:4px;stroke:#25393c;"/><path d="M125.562,50.225c0,6.8 -6.2,12.3 -13.8,12.3c-7.6,0 -13.8,-5.5 -13.8,-12.3" style="fill:#6aaeb6;fill-rule:nonzero;stroke-width:4px;stroke:#25393c;"/><path d="M40.562,95.925c0,6.8 -6.2,12.3 -13.8,12.3c-7.6,0 -13.8,-5.5 -13.8,-12.3" style="fill:#6aaeb6;fill-rule:nonzero;stroke-width:4px;stroke:#25393c;"/><path d="M68.262,95.925c0,6.8 -6.2,12.3 -13.8,12.3c-7.6,0 -13.8,-5.5 -13.8,-12.3" style="fill:#6aaeb6;fill-rule:nonzero;stroke-width:4px;stroke:#25393c;"/><path d="M95.862,95.925c0,6.8 -6.2,12.3 -13.8,12.3c-7.6,0 -13.8,-5.5 -13.8,-12.3" style="fill:#6aaeb6;fill-rule:nonzero;stroke-width:4px;stroke:#25393c;"/><path d="M123.562,95.925c0,6.8 -6.2,12.3 -13.8,12.3c-7.6,0 -13.8,-5.5 -13.8,-12.3" style="fill:#6aaeb6;fill-rule:nonzero;stroke-width:4px;stroke:#25393c;"/><path d="M21.662,74.525l0,-60.7c0,-5.5 4.4,-10.3 9.9,-10.3l8.1,0" style="fill:none;stroke-width:4px;stroke:#25393c;"/><path d="M42.832,74.525l0,-60.7c0,-5.5 4.4,-10.3 9.9,-10.3l8.1,0" style="fill:none;stroke-width:4px;stroke:#25393c;"/><path d="M22.662,20.525l20,0" style="fill:#6aaeb6;fill-rule:nonzero;stroke-width:4px;stroke:#25393c;"/><path d="M22.662,35.089l20,0" style="fill:#6aaeb6;fill-rule:nonzero;stroke-width:4px;stroke:#25393c;"/><path d="M22.662,49.653l20,0" style="fill:#6aaeb6;fill-rule:nonzero;stroke-width:4px;stroke:#25393c;"/><path d="M22.662,64.216l20,0" style="fill:#6aaeb6;fill-rule:nonzero;stroke-width:4px;stroke:#25393c;"/><path d="M5.662,18.525l10,0" style="fill:#6aaeb6;fill-rule:nonzero;stroke-width:4px;stroke:#25393c;"/><path d="M51.662,18.525l61,0" style="fill:#6aaeb6;fill-rule:nonzero;stroke-width:4px;stroke:#25393c;"/></svg>