<svg xmlns="http://www.w3.org/2000/svg" style="width:0; height:0; visibility:hidden;">
    <symbol id="icon-big-arrow" viewBox="0 0 60 180">
      <path d="M54.5 174.5L5.5 90l49-84.5" stroke-width="6"/>
    </symbol>
    <symbol id="icon-close" viewBox="0 0 20 20">
      <path d="M3 3l14 14M17 3L3 17" stroke-width="4"/>
    </symbol>
    <symbol id="icon-facebook" viewBox="0 0 34 34">
      <path d="M32 32h-8.658V18.83h4.122l.188-3.972h-4.31v-2.9c0-1.095.23-1.754 1.66-1.754 1.323 0 2.535.012 2.535.012l.093-3.708s-1.188-.154-2.795-.154c-3.97 0-5.692 2.447-5.692 5.112v3.392h-2.916v3.97h2.916V32H2V2h30v30z" stroke-width="2"/>
    </symbol>
    <symbol id="icon-mail" viewBox="0 0 30 26">
      <path d="M27.285 2.604C26.825 2.214 26.21 2 25.56 2H4.435c-.65 0-1.26.215-1.72.604C2.254 2.994 2 3.51 2 4.06v17.875c0 .14.015.278.048.413.008.027.02.047.027.074.032.108.064.212.116.316.008.01.016.016.02.026.12.232.286.447.504.63a2.605 2.605 0 0 0 .36.25c.116.067.235.117.358.164.02.01.04.02.06.027.115.044.237.07.36.097l.096.024c.162.027.325.044.487.044H25.56c.166 0 .33-.017.488-.044.032-.007.063-.017.095-.024.123-.027.25-.053.365-.097a.386.386 0 0 0 .06-.027 2.324 2.324 0 0 0 .376-.178c.12-.07.234-.147.34-.235.215-.184.382-.396.502-.624.007-.013.015-.022.02-.032.05-.1.082-.208.118-.316.004-.027.016-.047.024-.074.032-.135.052-.272.052-.413V4.06c0-.55-.254-1.067-.715-1.456z" stroke-width="2"/><path d="M13 14.052L2.676 20.695c-.42.27-.676.738-.676 1.24 0 .14.015.278.048.413.008.027.02.047.027.074.032.108.064.212.116.316.008.01.016.016.02.026.12.232.286.447.504.63a2.605 2.605 0 0 0 .36.25c.116.067.235.117.358.164.02.01.04.02.06.027.115.044.237.07.36.097l.096.024c.162.027.325.044.487.044H25.56c.166 0 .33-.017.488-.044.032-.007.063-.017.095-.024.123-.027.25-.053.365-.097a.386.386 0 0 0 .06-.027 2.324 2.324 0 0 0 .376-.178c.12-.07.234-.147.34-.235.215-.184.382-.396.502-.624.007-.013.015-.022.02-.032.05-.1.082-.208.118-.316.004-.027.016-.047.024-.074.032-.135.052-.272.052-.413 0-.502-.255-.97-.676-1.24L17 14.052" stroke-width="2" stroke-linecap="round"/><path d="M13.69 13.872a1.997 1.997 0 0 0 2.62 0l10.25-8.888A1.7 1.7 0 0 0 25.444 2H4.555A1.7 1.7 0 0 0 3.44 4.984l10.25 8.888z" stroke-width="2" stroke-linecap="round"/>
    </symbol>
    <symbol id="icon-menu" viewBox="0 0 20 20">
      <path d="M3 4h14M3 10h14M3 16h14" stroke-width="4"/>
    </symbol>
    <symbol id="icon-phone" viewBox="0 0 26 26">
      <path d="M22.92 3.743l-.608-.606c-.748-.745-1.83-1.14-3.125-1.14-3.204 0-7.493 2.294-11.194 5.99C2.618 13.348.486 19.63 3.137 22.276l.606.606c.455.45 1.055.7 1.698.7a2.38 2.38 0 0 0 1.695-.7l2.43-2.426a2.39 2.39 0 0 0 0-3.383l-.607-.606c-.646-.646-.35-2.324 2.43-5.1 2.364-2.36 3.735-2.712 4.342-2.712.32 0 .57.095.764.29l.607.606c.907.903 2.49.906 3.393 0L22.92 7.13a2.374 2.374 0 0 0 .704-1.696c0-.64-.25-1.24-.705-1.69z" stroke-width="2"/>
    </symbol>
    <symbol id="icon-process" viewBox="0 0 34 34">
      <path d="M28 17c0 6.07-4.93 11-11 11M6 17c0-6.07 4.93-11 11-11M23 6l-6 4V2l6 4zM11 28l6-4v8l-6-4z" stroke-width="2"/>
    </symbol>
    <symbol id="icon-send" viewBox="0 0 34 34">
      <path d="M31.668 2l-29 21h10v9l19-30zM31.668 2l-2 30-12.5-7M12.668 23l19-21" stroke-width="2"/>
    </symbol>
    <symbol id="icon-warning" viewBox="0 0 34 34">
      <path d="M17 4l14 26H3L17 4zM17 12.5V22M17 26.5V26" stroke-width="2"/>
    </symbol></svg>