<svg xmlns="http://www.w3.org/2000/svg">
  <defs>
      <filter id="dropshadow" height="64"><feGaussianBlur in="SourceAlpha"/><feColorMatrix in="SourceGraphic" values="0 0 0 0 0 0 0 0 0 0 0 0 0 0 0 0 0 0 .75 0"/><feOffset dx="2" dy="2" result="offsetblur"/><feMerge><feMergeNode/><feMergeNode in="SourceGraphic"/></feMerge></filter>
  </defs>
    <symbol id="icon-address" viewBox="0 0 20 26">
      <path d="M9.902 6.319c-1.064-.018-1.962.348-2.709 1.099-.747.732-1.12 1.61-1.12 2.654 0 1.043.373 1.921 1.12 2.672.747.732 1.645 1.098 2.709 1.098s1.962-.366 2.727-1.098c.747-.751 1.121-1.629 1.121-2.672 0-1.044-.374-1.922-1.121-2.654-.765-.751-1.663-1.117-2.727-1.099z" stroke-width="2"/><path d="M15.637 4.288C14.068 2.769 12.181 2 9.976 2c-2.204 0-4.09.769-5.641 2.288C2.766 5.807 1.982 7.655 2 9.834c0 1.445.355 2.745 1.047 3.916.037.055.093.128.149.22L9.827 24l7.043-10.158c.728-1.19 1.102-2.526 1.102-4.008 0-2.179-.785-4.027-2.335-5.546z" stroke-width="2"/>
    </symbol>
    <symbol id="icon-arrow-small-left" viewBox="0 0 40 40">
      <path d="M40 40V0H0v40h40zM10.682 19.169c.059-.13.131-.253.217-.368.076-.101.101-.121.188-.215l13-13c.094-.087.114-.111.215-.188a1.997 1.997 0 0 1 2.88 2.683c-.078.122-.17.228-.268.333L15.328 20l11.586 11.586.098.104c.079.1.102.123.17.229a2.002 2.002 0 0 1 .313 1.223 2.012 2.012 0 0 1-1.164 1.676c-.173.08-.358.135-.546.162-.126.018-.158.015-.285.02l-.143-.005a2.465 2.465 0 0 1-.42-.076 2.034 2.034 0 0 1-.637-.317c-.101-.076-.121-.101-.215-.188l-13-13c-.033-.035-.066-.068-.098-.104a2.009 2.009 0 0 1-.305-2.141z"/>
    </symbol>
    <symbol id="icon-arrow-small-right" viewBox="0 0 40 40">
      <path d="M0 0v40h40V0H0zm29.255 20.958a1.926 1.926 0 0 1-.243.353c-.031.035-.064.068-.098.104l-13 13c-.094.087-.114.111-.215.188a1.992 1.992 0 0 1-1.057.393L14.5 35c-.127-.005-.159-.002-.285-.02a1.973 1.973 0 0 1-.546-.162 1.968 1.968 0 0 1-.479-.308 2.02 2.02 0 0 1-.685-1.368 2 2 0 0 1 .313-1.223c.068-.106.091-.13.17-.229l.098-.104L24.672 20 13.086 8.414a2.002 2.002 0 0 1 .215-3.016c.153-.113.322-.205.5-.272a1.995 1.995 0 0 1 1.262-.045c.229.067.445.175.637.317.101.076.121.101.215.188l13 13c.087.094.111.114.188.215a2.015 2.015 0 0 1 .152 2.157z"/>
    </symbol>
    <symbol id="icon-big-arrow" viewBox="0 0 60 180">
      <path d="M54.5 174.5L5.5 90l49-84.5" stroke-width="6"/>
    </symbol>
    <symbol id="icon-close-square" viewBox="0 0 40 40">
      <path d="M0 0v40h40V0H0zm34.414 31.586a2 2 0 1 1-2.828 2.828L20 22.828 8.414 34.414C8.024 34.805 7.512 35 7 35s-1.024-.195-1.414-.586a2 2 0 0 1 0-2.828L17.172 20 5.586 8.414a2 2 0 1 1 2.828-2.828L20 17.172 31.586 5.586a2 2 0 1 1 2.828 2.828L22.828 20l11.586 11.586z"/>
    </symbol>
    <symbol id="icon-close" viewBox="0 0 20 20">
      <path d="M3 3l14 14M17 3L3 17" stroke-width="4"/>
    </symbol>
    <symbol id="icon-drop-shadow" viewBox="0 0 0 0">
      
    </symbol>
    <symbol id="icon-facebook" viewBox="0 0 34 34">
      <path d="M32 32h-8.658V18.829h4.122l.188-3.971h-4.31v-2.9c0-1.095.229-1.754 1.66-1.754 1.323 0 2.535.012 2.535.012l.093-3.708s-1.188-.154-2.795-.154c-3.969 0-5.692 2.447-5.692 5.112v3.392h-2.916v3.971h2.916V32H2V2h30v30z" stroke-width="2"/>
    </symbol>
    <symbol id="icon-mail" viewBox="0 0 30 26">
      <path d="M2 4.061v17.874M28 21.935V4.061" stroke-width="2"/><path d="M13.73 14.531c.74.625 1.8.625 2.54 0l11.098-9.374a1.82 1.82 0 0 0 .533-1.974C27.659 2.474 27.013 2 26.289 2H3.711c-.724 0-1.37.474-1.612 1.183a1.82 1.82 0 0 0 .533 1.974l11.098 9.374z" stroke-width="2" stroke-linecap="round"/><path d="M13 14L2.679 20.676A1.488 1.488 0 0 0 2 21.924c0 .142.015.28.048.416.008.026.019.046.027.074.032.108.064.213.116.317.007.01.015.016.019.027.119.233.286.449.504.634a2.723 2.723 0 0 0 .361.25c.115.068.234.118.357.165.02.011.04.02.06.027.115.044.237.071.36.098l.096.024c.162.027.325.044.487.044H25.56c.166 0 .329-.017.488-.044.032-.007.063-.017.095-.024.123-.027.25-.054.365-.098a.386.386 0 0 0 .059-.027 2.425 2.425 0 0 0 .377-.178c.12-.071.234-.149.341-.237.214-.185.381-.398.501-.627.007-.014.015-.024.019-.034.052-.101.083-.209.119-.317.004-.028.016-.048.024-.074.032-.136.052-.274.052-.416 0-.504-.256-.974-.679-1.248L17 14" stroke-width="2" stroke-linecap="round"/>
    </symbol>
    <symbol id="icon-menu" viewBox="0 0 20 20">
      <path d="M3 4h14M3 10h14M3 16h14" stroke-width="4"/>
    </symbol>
    <symbol id="icon-phone" viewBox="0 0 26 26">
      <path d="M23.282 3.777l-.617-.618c-.761-.759-1.861-1.163-3.179-1.163-3.26 0-7.623 2.339-11.389 6.105C2.629 13.567.46 19.968 3.157 22.666l.616.618a2.43 2.43 0 0 0 1.728.712c.65 0 1.264-.252 1.724-.712l2.471-2.473a2.435 2.435 0 0 0 0-3.447l-.617-.618c-.658-.658-.355-2.368 2.472-5.198 2.405-2.405 3.8-2.764 4.417-2.764.325 0 .58.097.778.295l.617.618c.922.92 2.532.924 3.451 0l2.468-2.469A2.424 2.424 0 0 0 24 5.5c0-.651-.255-1.263-.718-1.723z" stroke-width="2"/>
    </symbol>
    <symbol id="icon-process" viewBox="0 0 34 34">
      <path d="M28 17c0 6.071-4.929 11-11 11M6 17c0-6.071 4.929-11 11-11M23 6l-6 4V2l6 4zM11 28l6-4v8l-6-4z" stroke-width="2"/>
    </symbol>
    <symbol id="icon-send" viewBox="0 0 34 34">
      <path d="M31.668 2l-29 21h10v9l19-30zM31.668 2l-2 30-12.5-7M12.668 23l19-21" stroke-width="2"/>
    </symbol>
    <symbol id="icon-warning" viewBox="0 0 34 34">
      <path d="M17 4l14 26H3L17 4zM17 12.5V22M17 26.5V26" stroke-width="2"/>
    </symbol></svg>