<svg xmlns="http://www.w3.org/2000/svg" style="width:0; height:0; visibility:hidden;">
    <symbol id="svg-flag-en" viewBox="0 0 40 30">
      <clipPath id="_clip1"><rect id="flag-en" x="0" y="0" width="40" height="30"/></clipPath><g clip-path="url(#_clip1)"><rect x="-2.843" y="0" width="45.686" height="30" style="fill:#084ca1;fill-rule:nonzero;"/><path d="M37.127,0l-11.902,7.805l0,-7.805l-10.482,0l0,8.126l-12.581,-8.126l-5.005,0l0,4.057l9.023,5.855l-9.023,0l0,10.393l8.95,0l-8.95,5.898l0,3.797l5.921,0l11.665,-7.677l0,7.677l10.482,0l0,-7.812l12.051,7.812l5.567,0l0,-3.754l-9.17,-5.941l9.17,0l0,-10.393l-9.124,0l9.124,-6l0,-3.912l-5.716,0Z" style="fill:#fff;fill-rule:nonzero;"/><path d="M-2.843,0l0,2.616l10.988,7.296l3.719,0l-14.707,-9.912Z" style="fill:#ed1c24;fill-rule:nonzero;"/><path d="M11.718,20.305l-14.561,9.695l3.487,0l14.099,-9.218l0,-0.477l-3.025,0Z" style="fill:#ed1c24;fill-rule:nonzero;"/><path d="M39.512,0l-14.287,9.3l0,0.612l2.817,0l14.801,-9.67l0,-0.242l-3.331,0Z" style="fill:#ed1c24;fill-rule:nonzero;"/><path d="M16.989,0l0,12.118l-19.832,0l0,5.982l19.832,0l0,11.9l5.99,0l0,-11.9l19.864,0l0,-5.982l-19.864,0l0,-12.118l-5.99,0Z" style="fill:#ed1c24;fill-rule:nonzero;"/><path d="M28.157,20.305l14.686,9.695l0,-2.434l-10.967,-7.261l-3.719,0Z" style="fill:#ed1c24;fill-rule:nonzero;"/></g>
    </symbol>
    <symbol id="svg-flag-th" viewBox="0 0 40 30">
      <clipPath id="_clip1"><rect id="flag-th" x="0" y="0" width="40" height="30"/></clipPath><g clip-path="url(#_clip1)"><g id="Artboard1"><rect x="0" y="0" width="40" height="30" style="fill:#ec192d;"/><rect x="0" y="5" width="40" height="20.001" style="fill:#fff;"/><rect x="0" y="10" width="40" height="10" style="fill:#1c468f;"/></g></g>
    </symbol>
    <symbol id="svg-hammer" viewBox="0 0 127 121">
      <clipPath id="_clip1"><rect id="hammer" x="0.753" y="0.079" width="125.946" height="120"/></clipPath><g clip-path="url(#_clip1)"><ellipse cx="18.203" cy="93.379" rx="15.45" ry="2.8" style="fill:#6aaeb6;"/><path d="M121.653,101.479c3.1,3.1 4,7.1 2.1,9l-6.3,6.4c-1.9,1.9 -5.9,0.9 -9,-2.1l-60.6,-63.9c-3.1,-3.1 -4,-7.1 -2.1,-9l3,-3c1.9,-1.9 5.9,-0.9 9,2.1l63.9,60.5Z" style="fill:#edab61;fill-rule:nonzero;stroke-width:4px;stroke:#25393c;"/><path d="M61.153,9.379l-42.1,42.1l-11.5,-11.5l33.8,-33.8l19.8,3.2Z" style="fill:#6aaeb6;fill-rule:nonzero;stroke-width:4px;stroke:#25393c;"/><path d="M38.953,39.979l8,-8" style="fill:#ffab00;fill-rule:nonzero;stroke-width:4px;stroke:#25393c;"/><path d="M95.753,118.079l26,0" style="fill:#ffab00;fill-rule:nonzero;stroke-width:4px;stroke:#25393c;"/><path d="M33.653,93.379c0,1.5 -6.9,2.8 -15.4,2.8c-8.6,0 -15.5,-1.3 -15.5,-2.8" style="fill:none;stroke-width:4px;stroke:#25393c;"/><path d="M12.753,103.079l11,0" style="fill:#ffab00;fill-rule:nonzero;stroke-width:4px;stroke:#25393c;"/><path d="M12.753,110.079l11,0" style="fill:#ffab00;fill-rule:nonzero;stroke-width:4px;stroke:#25393c;"/><path d="M12.753,117.079l11,0" style="fill:#ffab00;fill-rule:nonzero;stroke-width:4px;stroke:#25393c;"/><path d="M30.753,52.079l0,25" style="fill:#ffab00;fill-rule:nonzero;stroke-width:4px;stroke:#355b60;"/><path d="M6.753,2.079l0,26" style="fill:#ffab00;fill-rule:nonzero;stroke-width:4px;stroke:#355b60;"/><path d="M15.753,6.079l0,15" style="fill:#ffab00;fill-rule:nonzero;stroke-width:4px;stroke:#355b60;"/></g>
    </symbol>
    <symbol id="svg-interior" viewBox="0 0 131 121">
      <path d="M97.583,17.569l28.617,0l0,100.881l-65.042,0l0,-27.025l-57.055,0l0,-73.856l29.076,0" style="fill:#6aaeb6;stroke-width:4px;stroke:#25393c;"/><path d="M33.179,91.425l44,0l0,-39l-22,0" style="fill:#355b60;fill-rule:nonzero;stroke-width:4px;stroke:#25393c;"/><path d="M6.179,91.425l23,0l0,-39l-11,0" style="fill:#355b60;fill-rule:nonzero;stroke-width:4px;stroke:#25393c;"/><path d="M80.179,91.425l23,0l0,-26" style="fill:#355b60;fill-rule:nonzero;stroke-width:4px;stroke:#25393c;"/><path d="M101.779,52.425l-24.6,0" style="fill:#6aaeb6;fill-rule:nonzero;stroke-width:4px;stroke:#25393c;"/><path d="M37.079,52.425l-8.9,0" style="fill:#6aaeb6;fill-rule:nonzero;stroke-width:4px;stroke:#25393c;"/><rect x="61.178" y="91.425" width="42.001" height="27.025" style="fill:#6aaeb6;stroke-width:4px;stroke:#25393c;"/><rect x="41.54" y="63.454" width="19.638" height="27.971" style="fill:#edab61;stroke-width:4px;stroke:#25393c;"/><path d="M4.103,73.935c9.653,0 17.489,7.837 17.489,17.49l-17.489,0l0,-17.49Z" style="fill:#edab61;stroke-width:3.21px;stroke:#25393c;"/><path d="M94.179,92.425l0,25" style="fill:none;stroke-width:4px;stroke:#25393c;"/><path d="M82.179,92.425l0,25" style="fill:none;stroke-width:4px;stroke:#25393c;"/><path d="M70.179,92.425l0,25" style="fill:none;stroke-width:4px;stroke:#25393c;"/><path d="M59.879,4.425l-12.3,12.2l-11.2,29.4l29.2,-11.4l30.6,-30.7" style="fill:#f5cd92;stroke-width:4px;stroke:#25393c;"/><path d="M41.668,32.143l-5.289,13.882l13.788,-5.383l-8.499,-8.499Z" style="fill:#edab61;stroke-width:4px;stroke:#25393c;"/><path d="M56.681,25.725l8.898,8.9" style="fill:#f5cd92;fill-rule:nonzero;stroke-width:4px;stroke:#25393c;"/><path d="M59.879,4.425l-12.3,12.2l9.1,9.1l22.2,-22.2" style="fill:#edab61;fill-rule:nonzero;stroke-width:4px;stroke:#25393c;"/>
    </symbol>
    <symbol id="svg-logo-facebook" viewBox="0 0 40 40">
       <rect style="fill:#3C5A98;" width="40" height="40"/> <rect x="2.857" y="31.429" style="fill:#6D84B3;" width="34.286" height="5.714"/> <path style="fill:#FFFFFF;" d="M22.857,37.143V22.438h-3.888v-5.294h3.888c0,0,0-2.17,0-4.522c0-3.554,2.297-6.817,7.589-6.817
	c2.143,0,3.728,0.206,3.728,0.206l-0.125,4.944c0,0-1.616-0.016-3.379-0.016c-1.909,0-2.214,0.879-2.214,2.339
	c0,1.154,0-2.459,0,3.866h5.746l-0.25,5.294h-5.496v14.705H22.857z"/> 
    </symbol>
    <symbol id="svg-logo-outline" viewBox="0 0 230 80">
      <clipPath id="_clip1"><rect id="logo-outline" x="0" y="0" width="230" height="80"/></clipPath><g clip-path="url(#_clip1)"><path d="M42.248,53.786l-9.083,0l0,-14.651c5.243,3.411 10.44,5.131 15.035,3.742c3.937,-1.19 6.808,-4.713 6.808,-10.076c0,-5.363 -3.09,-9.412 -6.868,-9.718c-3.072,-0.248 -5.803,2.546 -6.08,5.201c-0.142,1.357 0.599,2.121 1.466,2.121c0.583,0 1.092,-0.318 1.363,-0.79l0.014,-0.026c0.581,-1.006 1.66,-1.694 2.906,-1.694c1.855,0 3.361,1.192 3.361,3.354c0,4.464 -3.796,6.114 -6.507,6.114c-5.515,0 -13.025,-6.269 -13.025,-15.692c0,-6.813 5.299,-17.579 9.94,-21.589c0.22,-0.131 0.5,-0.103 0.69,0.069c0.19,0.173 0.246,0.449 0.138,0.681c-0.995,1.959 -2.323,4.876 -2.361,6.673c-0.057,2.715 1.447,4.904 4.291,5.344c15.339,2.376 19.777,9.696 19.777,20.433c0,11.316 -10.875,20.504 -21.499,20.504c-0.122,0 -0.244,-0.001 -0.366,-0.004l0,0.004ZM-0.09,1.221c0.909,1.446 4.771,7.491 10.185,14.57c-2.861,2.617 -6.563,4.549 -10.185,5.769l0,-20.339Z" style="fill:#355b60;"/><path d="M27.582,53.725l-27.672,0l0,-26.788c10.525,-1.989 25.332,-10.872 17.323,-25.843c-0.123,-0.237 -0.065,-0.528 0.14,-0.7c0.206,-0.171 0.503,-0.175 0.713,-0.011c9.651,8.099 10.206,22.552 4.642,27.787l-8.915,6.664c-6.305,6.866 1.834,14.904 9.319,8.78c0.997,-0.816 2.841,-2.782 4.45,-4.582l0,14.693Z" style="fill:#f5a956;"/><path d="M11.744,70.753l-2.294,0c-0.097,-0.379 -0.232,-0.728 -0.403,-1.046c-0.171,-0.318 -0.392,-0.593 -0.661,-0.825c-0.269,-0.233 -0.584,-0.413 -0.945,-0.542c-0.36,-0.128 -0.779,-0.192 -1.256,-0.192c-0.697,0 -1.3,0.14 -1.807,0.422c-0.508,0.281 -0.921,0.657 -1.239,1.128c-0.318,0.471 -0.553,1.006 -0.706,1.606c-0.153,0.599 -0.23,1.21 -0.23,1.834c0,0.624 0.077,1.236 0.23,1.835c0.153,0.599 0.388,1.134 0.706,1.605c0.318,0.471 0.731,0.847 1.239,1.129c0.507,0.281 1.11,0.422 1.807,0.422c0.513,0 0.966,-0.089 1.357,-0.266c0.392,-0.178 0.728,-0.422 1.009,-0.734c0.282,-0.312 0.502,-0.676 0.661,-1.092c0.159,-0.416 0.263,-0.862 0.312,-1.339l2.238,0c-0.049,0.783 -0.217,1.498 -0.504,2.146c-0.288,0.649 -0.676,1.208 -1.165,1.679c-0.49,0.471 -1.064,0.835 -1.725,1.092c-0.66,0.257 -1.388,0.385 -2.183,0.385c-0.979,0 -1.856,-0.18 -2.633,-0.541c-0.777,-0.361 -1.434,-0.853 -1.972,-1.477c-0.539,-0.624 -0.951,-1.352 -1.239,-2.183c-0.287,-0.832 -0.431,-1.719 -0.431,-2.661c0,-0.929 0.144,-1.81 0.431,-2.642c0.288,-0.831 0.7,-1.559 1.239,-2.183c0.538,-0.624 1.195,-1.119 1.972,-1.486c0.777,-0.367 1.654,-0.551 2.633,-0.551c0.734,0 1.425,0.101 2.073,0.303c0.648,0.202 1.22,0.496 1.715,0.881c0.496,0.385 0.896,0.853 1.202,1.403c0.306,0.551 0.495,1.181 0.569,1.89ZM34.109,66.276c0.978,0 1.856,0.184 2.633,0.551c0.776,0.367 1.434,0.862 1.972,1.486c0.538,0.624 0.951,1.352 1.238,2.183c0.288,0.832 0.432,1.713 0.432,2.642c0,0.942 -0.144,1.829 -0.432,2.661c-0.287,0.831 -0.7,1.559 -1.238,2.183c-0.538,0.624 -1.196,1.116 -1.972,1.477c-0.777,0.361 -1.655,0.541 -2.633,0.541c-0.979,0 -1.856,-0.18 -2.633,-0.541c-0.777,-0.361 -1.434,-0.853 -1.972,-1.477c-0.538,-0.624 -0.951,-1.352 -1.239,-2.183c-0.287,-0.832 -0.431,-1.719 -0.431,-2.661c0,-0.929 0.144,-1.81 0.431,-2.642c0.288,-0.831 0.701,-1.559 1.239,-2.183c0.538,-0.624 1.195,-1.119 1.972,-1.486c0.777,-0.367 1.654,-0.551 2.633,-0.551ZM94.599,70.46l-2.293,0c-0.062,-0.844 -0.349,-1.441 -0.863,-1.789c-0.513,-0.349 -1.168,-0.523 -1.963,-0.523c-0.269,0 -0.544,0.027 -0.825,0.082c-0.282,0.055 -0.539,0.147 -0.771,0.276c-0.232,0.128 -0.425,0.302 -0.578,0.522c-0.153,0.221 -0.229,0.496 -0.229,0.826c0,0.465 0.143,0.829 0.431,1.092c0.287,0.263 0.663,0.461 1.128,0.596c0.049,0.012 0.242,0.064 0.578,0.156c0.337,0.092 0.713,0.193 1.128,0.303c0.416,0.11 0.823,0.217 1.221,0.321c0.397,0.104 0.681,0.18 0.853,0.229c0.428,0.135 0.801,0.318 1.119,0.551c0.318,0.232 0.584,0.498 0.798,0.798c0.214,0.299 0.373,0.62 0.477,0.963c0.104,0.342 0.156,0.685 0.156,1.027c0,0.734 -0.15,1.361 -0.45,1.881c-0.299,0.52 -0.694,0.945 -1.183,1.275c-0.489,0.33 -1.046,0.572 -1.67,0.725c-0.623,0.153 -1.259,0.229 -1.908,0.229c-0.746,0 -1.449,-0.092 -2.11,-0.275c-0.66,-0.184 -1.235,-0.465 -1.724,-0.844c-0.489,-0.379 -0.881,-0.866 -1.174,-1.459c-0.294,-0.593 -0.447,-1.293 -0.459,-2.1l2.293,0c0,0.501 0.086,0.929 0.257,1.284c0.171,0.355 0.41,0.645 0.716,0.871c0.306,0.227 0.657,0.392 1.055,0.496c0.397,0.104 0.828,0.156 1.293,0.156c0.502,0 0.93,-0.058 1.284,-0.175c0.355,-0.116 0.643,-0.266 0.863,-0.449c0.22,-0.184 0.379,-0.395 0.477,-0.633c0.098,-0.239 0.147,-0.48 0.147,-0.725c0,-0.501 -0.114,-0.871 -0.34,-1.11c-0.226,-0.238 -0.474,-0.407 -0.743,-0.504c-0.465,-0.172 -1.006,-0.334 -1.624,-0.487c-0.617,-0.152 -1.379,-0.351 -2.284,-0.596c-0.562,-0.147 -1.03,-0.339 -1.403,-0.578c-0.373,-0.238 -0.67,-0.504 -0.89,-0.798c-0.22,-0.293 -0.376,-0.605 -0.468,-0.936c-0.092,-0.33 -0.138,-0.666 -0.138,-1.009c0,-0.66 0.138,-1.232 0.413,-1.715c0.275,-0.483 0.639,-0.884 1.092,-1.202c0.452,-0.318 0.966,-0.553 1.541,-0.706c0.575,-0.153 1.156,-0.23 1.743,-0.23c0.685,0 1.33,0.089 1.936,0.266c0.605,0.178 1.137,0.444 1.596,0.799c0.458,0.354 0.822,0.792 1.091,1.311c0.269,0.52 0.404,1.123 0.404,1.808ZM164.648,66.588l2.293,0l0,7.633c0,0.44 0.022,0.886 0.065,1.339c0.042,0.453 0.165,0.859 0.366,1.22c0.202,0.361 0.508,0.658 0.918,0.89c0.41,0.232 0.987,0.349 1.734,0.349c0.746,0 1.324,-0.117 1.733,-0.349c0.41,-0.232 0.716,-0.529 0.918,-0.89c0.202,-0.361 0.324,-0.767 0.367,-1.22c0.042,-0.453 0.064,-0.899 0.064,-1.339l0,-7.633l2.293,0l0,8.385c0,0.844 -0.128,1.578 -0.385,2.202c-0.257,0.623 -0.621,1.146 -1.092,1.568c-0.471,0.422 -1.036,0.737 -1.697,0.945c-0.66,0.208 -1.394,0.312 -2.201,0.312c-0.808,0 -1.542,-0.104 -2.202,-0.312c-0.661,-0.208 -1.226,-0.523 -1.697,-0.945c-0.471,-0.422 -0.835,-0.945 -1.092,-1.568c-0.257,-0.624 -0.385,-1.358 -0.385,-2.202l0,-8.385ZM203.855,70.753l-2.293,0c-0.098,-0.379 -0.232,-0.728 -0.404,-1.046c-0.171,-0.318 -0.391,-0.593 -0.66,-0.825c-0.269,-0.233 -0.584,-0.413 -0.945,-0.542c-0.361,-0.128 -0.78,-0.192 -1.257,-0.192c-0.697,0 -1.299,0.14 -1.807,0.422c-0.507,0.281 -0.92,0.657 -1.238,1.128c-0.318,0.471 -0.554,1.006 -0.707,1.606c-0.153,0.599 -0.229,1.21 -0.229,1.834c0,0.624 0.076,1.236 0.229,1.835c0.153,0.599 0.389,1.134 0.707,1.605c0.318,0.471 0.731,0.847 1.238,1.129c0.508,0.281 1.11,0.422 1.807,0.422c0.514,0 0.967,-0.089 1.358,-0.266c0.391,-0.178 0.728,-0.422 1.009,-0.734c0.281,-0.312 0.502,-0.676 0.661,-1.092c0.159,-0.416 0.263,-0.862 0.312,-1.339l2.238,0c-0.049,0.783 -0.217,1.498 -0.505,2.146c-0.287,0.649 -0.675,1.208 -1.165,1.679c-0.489,0.471 -1.064,0.835 -1.724,1.092c-0.661,0.257 -1.389,0.385 -2.184,0.385c-0.978,0 -1.856,-0.18 -2.632,-0.541c-0.777,-0.361 -1.435,-0.853 -1.973,-1.477c-0.538,-0.624 -0.951,-1.352 -1.238,-2.183c-0.288,-0.832 -0.431,-1.719 -0.431,-2.661c0,-0.929 0.143,-1.81 0.431,-2.642c0.287,-0.831 0.7,-1.559 1.238,-2.183c0.538,-0.624 1.196,-1.119 1.973,-1.486c0.776,-0.367 1.654,-0.551 2.632,-0.551c0.734,0 1.425,0.101 2.074,0.303c0.648,0.202 1.22,0.496 1.715,0.881c0.495,0.385 0.896,0.853 1.202,1.403c0.306,0.551 0.495,1.181 0.568,1.89ZM59.244,79.688l-2.183,0l0,-13.1l2.422,0l5.981,9.651l0.037,0l0,-9.651l2.183,0l0,13.1l-2.422,0l-5.963,-9.632l-0.055,0l0,9.632ZM121,68.57l-4.164,0l0,11.118l-2.294,0l0,-11.118l-4.146,0l0,-1.982l10.604,0l0,1.982ZM139.494,79.688l-2.293,0l0,-13.1l6.256,0c1.443,0 2.526,0.312 3.248,0.936c0.721,0.624 1.082,1.492 1.082,2.605c0,0.624 -0.092,1.141 -0.275,1.551c-0.184,0.409 -0.398,0.74 -0.642,0.99c-0.245,0.251 -0.487,0.432 -0.725,0.542c-0.239,0.11 -0.413,0.183 -0.523,0.22l0,0.036c0.196,0.025 0.407,0.086 0.633,0.184c0.226,0.098 0.437,0.254 0.633,0.468c0.196,0.214 0.358,0.492 0.486,0.835c0.129,0.342 0.193,0.77 0.193,1.284c0,0.77 0.058,1.471 0.174,2.101c0.116,0.629 0.297,1.079 0.541,1.348l-2.458,0c-0.171,-0.281 -0.272,-0.593 -0.303,-0.936c-0.03,-0.342 -0.046,-0.672 -0.046,-0.99c0,-0.6 -0.036,-1.116 -0.11,-1.551c-0.073,-0.434 -0.208,-0.795 -0.403,-1.082c-0.196,-0.288 -0.462,-0.499 -0.799,-0.633c-0.336,-0.135 -0.767,-0.202 -1.293,-0.202l-3.376,0l0,5.394ZM230,68.57l-4.165,0l0,11.118l-2.293,0l0,-11.118l-4.147,0l0,-1.982l10.605,0l0,1.982ZM34.109,68.148c-0.697,0 -1.3,0.14 -1.807,0.422c-0.508,0.281 -0.921,0.657 -1.239,1.128c-0.318,0.471 -0.553,1.006 -0.706,1.606c-0.153,0.599 -0.229,1.21 -0.229,1.834c0,0.624 0.076,1.236 0.229,1.835c0.153,0.599 0.388,1.134 0.706,1.605c0.318,0.471 0.731,0.847 1.239,1.129c0.507,0.281 1.11,0.422 1.807,0.422c0.697,0 1.299,-0.141 1.807,-0.422c0.508,-0.282 0.92,-0.658 1.238,-1.129c0.318,-0.471 0.554,-1.006 0.707,-1.605c0.153,-0.599 0.229,-1.211 0.229,-1.835c0,-0.624 -0.076,-1.235 -0.229,-1.834c-0.153,-0.6 -0.389,-1.135 -0.707,-1.606c-0.318,-0.471 -0.73,-0.847 -1.238,-1.128c-0.508,-0.282 -1.11,-0.422 -1.807,-0.422ZM139.494,72.551l3.761,0c0.734,0 1.291,-0.174 1.67,-0.523c0.379,-0.348 0.569,-0.871 0.569,-1.568c0,-0.416 -0.062,-0.756 -0.184,-1.019c-0.122,-0.263 -0.29,-0.468 -0.504,-0.614c-0.214,-0.147 -0.459,-0.245 -0.734,-0.294c-0.275,-0.049 -0.56,-0.073 -0.853,-0.073l-3.725,0l0,4.091ZM82.391,54.561l0,-3.862l6.276,0l0,-40.559l-6.276,0l0,-3.862l8.484,0c0.873,0 1.896,-0.023 3.069,-0.069c1.173,-0.046 2.38,-0.104 3.621,-0.173c1.242,-0.069 2.426,-0.138 3.553,-0.207c1.126,-0.069 2.08,-0.103 2.862,-0.103c4.277,0 8.047,0.54 11.312,1.621c3.265,1.08 6.001,2.644 8.208,4.69c2.208,2.047 3.875,4.564 5.001,7.553c1.127,2.989 1.69,6.392 1.69,10.209c0,3.678 -0.529,7.058 -1.586,10.139c-1.058,3.081 -2.713,5.76 -4.967,8.036c-2.253,2.276 -5.138,4.047 -8.656,5.311c-3.518,1.265 -7.714,1.897 -12.588,1.897c-0.736,0 -1.587,-0.035 -2.552,-0.103c-0.966,-0.069 -1.989,-0.138 -3.07,-0.207c-1.081,-0.069 -2.173,-0.138 -3.276,-0.207c-1.104,-0.069 -2.139,-0.104 -3.104,-0.104l-8.001,0ZM143.09,50.561c0,-1.426 0.483,-2.553 1.448,-3.38c0.966,-0.828 2.253,-1.242 3.863,-1.242c1.609,0 2.92,0.414 3.932,1.242c1.011,0.827 1.517,1.954 1.517,3.38c0,1.379 -0.506,2.483 -1.517,3.31c-1.012,0.828 -2.323,1.242 -3.932,1.242c-1.61,0 -2.897,-0.414 -3.863,-1.242c-0.965,-0.827 -1.448,-1.931 -1.448,-3.31ZM219.24,50.561c0,-1.426 0.483,-2.553 1.448,-3.38c0.966,-0.828 2.253,-1.242 3.863,-1.242c1.609,0 2.92,0.414 3.932,1.242c1.011,0.827 1.517,1.954 1.517,3.38c0,1.379 -0.506,2.483 -1.517,3.31c-1.012,0.828 -2.323,1.242 -3.932,1.242c-1.61,0 -2.897,-0.414 -3.863,-1.242c-0.965,-0.827 -1.448,-1.931 -1.448,-3.31ZM164.886,54.561l0,-3.862l6.277,0l0,-40.559l-6.277,0l0,-3.862l9.036,0c0.966,0 1.886,-0.023 2.759,-0.069c0.874,-0.046 1.794,-0.092 2.759,-0.138c0.966,-0.046 2.012,-0.092 3.139,-0.138c1.126,-0.046 2.379,-0.069 3.759,-0.069c2.023,0 4.093,0.149 6.208,0.448c2.115,0.299 4.023,0.862 5.725,1.69c1.701,0.828 3.092,1.989 4.173,3.483c1.081,1.495 1.621,3.438 1.621,5.829c0,1.242 -0.219,2.46 -0.655,3.656c-0.437,1.195 -1.081,2.299 -1.932,3.311c-0.85,1.011 -1.92,1.908 -3.207,2.69c-1.288,0.781 -2.782,1.356 -4.484,1.724l0,0.276c1.518,0.23 3.035,0.621 4.553,1.173c1.517,0.551 2.885,1.299 4.104,2.241c1.219,0.943 2.196,2.104 2.931,3.484c0.736,1.379 1.104,3.035 1.104,4.966c0,2.483 -0.609,4.621 -1.828,6.415c-1.218,1.793 -2.816,3.265 -4.794,4.414c-1.977,1.15 -4.219,1.989 -6.725,2.518c-2.506,0.529 -5.047,0.793 -7.622,0.793c-1.793,0 -3.805,-0.069 -6.035,-0.207c-2.23,-0.138 -4.38,-0.207 -6.449,-0.207l-8.14,0ZM102.945,9.589c-1.287,0 -2.529,0.023 -3.724,0.069c-1.196,0.046 -2.138,0.138 -2.828,0.275l0,41.11c0.276,0.046 0.735,0.081 1.379,0.104c0.644,0.023 1.345,0.046 2.104,0.069c0.759,0.023 1.483,0.046 2.173,0.069c0.69,0.023 1.172,0.034 1.448,0.034c3.449,0 6.323,-0.586 8.622,-1.759c2.3,-1.172 4.15,-2.736 5.553,-4.69c1.402,-1.954 2.403,-4.231 3,-6.829c0.598,-2.598 0.897,-5.345 0.897,-8.242c0,-2.254 -0.287,-4.576 -0.862,-6.967c-0.575,-2.391 -1.575,-4.575 -3.001,-6.553c-1.425,-1.977 -3.333,-3.586 -5.725,-4.828c-2.391,-1.242 -5.403,-1.862 -9.036,-1.862ZM184.545,31.799l-5.657,0l0,18.693c0.69,0.184 1.529,0.333 2.518,0.448c0.989,0.115 2.541,0.172 4.656,0.172c1.793,0 3.46,-0.241 5.001,-0.724c1.54,-0.483 2.862,-1.161 3.966,-2.035c1.104,-0.873 1.966,-1.92 2.587,-3.138c0.62,-1.219 0.931,-2.564 0.931,-4.035c0,-1.84 -0.38,-3.369 -1.138,-4.587c-0.759,-1.219 -1.771,-2.184 -3.035,-2.897c-1.265,-0.713 -2.748,-1.207 -4.449,-1.483c-1.702,-0.276 -3.495,-0.414 -5.38,-0.414ZM182.613,28.212c0.92,0 1.943,-0.034 3.07,-0.103c1.126,-0.069 2.08,-0.15 2.862,-0.242c2.345,-0.735 4.231,-1.92 5.656,-3.552c1.426,-1.632 2.139,-3.552 2.139,-5.759c0,-3.035 -0.966,-5.266 -2.897,-6.691c-1.932,-1.426 -4.553,-2.138 -7.864,-2.138c-1.563,0 -2.885,0.034 -3.966,0.103c-1.081,0.069 -1.989,0.149 -2.725,0.241l0,18.141l3.725,0Z" style="fill:#fff;"/></g>
    </symbol>
    <symbol id="svg-residential-commercial" viewBox="0 0 261 131">
      <path d="M183.936,22.179l12.7,-18.9l11.4,18.1" style="fill:#6aaeb6;fill-rule:nonzero;stroke-width:4px;stroke:#25393c;"/><rect x="168.636" y="30.079" width="56" height="98" style="fill:#6aaeb6;stroke-width:4px;stroke-linecap:round;stroke:#25393c;"/><rect x="175.136" y="39.079" width="10.5" height="9.5" style="fill:#f5cd92;fill-rule:nonzero;"/><rect x="175.136" y="58.079" width="10.5" height="9.5" style="fill:#f5cd92;fill-rule:nonzero;"/><rect x="175.136" y="76.079" width="10.5" height="10.5" style="fill:#f5cd92;fill-rule:nonzero;"/><rect x="175.136" y="95.079" width="10.5" height="9.5" style="fill:#f5cd92;fill-rule:nonzero;"/><rect x="191.136" y="39.079" width="10.5" height="9.5" style="fill:#f5cd92;fill-rule:nonzero;"/><rect x="191.136" y="58.079" width="10.5" height="9.5" style="fill:#f5cd92;fill-rule:nonzero;"/><rect x="191.136" y="76.079" width="10.5" height="10.5" style="fill:#f5cd92;fill-rule:nonzero;"/><rect x="191.136" y="95.079" width="10.5" height="9.5" style="fill:#f5cd92;fill-rule:nonzero;"/><rect x="208.136" y="39.079" width="10.5" height="9.5" style="fill:#f5cd92;fill-rule:nonzero;"/><rect x="208.136" y="58.079" width="10.5" height="9.5" style="fill:#f5cd92;fill-rule:nonzero;"/><rect x="208.136" y="76.079" width="10.5" height="10.5" style="fill:#f5cd92;fill-rule:nonzero;"/><rect x="208.136" y="95.079" width="10.5" height="9.5" style="fill:#f5cd92;fill-rule:nonzero;"/><path d="M185.636,48.579l-10.5,0l0,-9.5" style="fill:none;stroke-width:4px;stroke-linecap:round;stroke:#25393c;"/><path d="M185.636,48.579l-10.5,0l0,-9.5" style="fill:none;stroke-width:4px;stroke-linecap:round;stroke:#25393c;"/><path d="M201.636,48.579l-10.5,0l0,-9.5" style="fill:none;stroke-width:4px;stroke-linecap:round;stroke:#25393c;"/><path d="M217.636,48.579l-9.5,0l0,-9.5" style="fill:none;stroke-width:4px;stroke-linecap:round;stroke:#25393c;"/><path d="M185.636,67.579l-10.5,0l0,-9.5" style="fill:none;stroke-width:4px;stroke-linecap:round;stroke:#25393c;"/><path d="M201.636,67.579l-10.5,0l0,-9.5" style="fill:none;stroke-width:4px;stroke-linecap:round;stroke:#25393c;"/><path d="M217.636,67.579l-9.5,0l0,-9.5" style="fill:none;stroke-width:4px;stroke-linecap:round;stroke:#25393c;"/><path d="M185.636,86.579l-10.5,0l0,-10.5" style="fill:none;stroke-width:4px;stroke-linecap:round;stroke:#25393c;"/><path d="M201.636,86.579l-10.5,0l0,-10.5" style="fill:none;stroke-width:4px;stroke-linecap:round;stroke:#25393c;"/><path d="M217.636,86.579l-9.5,0l0,-10.5" style="fill:none;stroke-width:4px;stroke-linecap:round;stroke:#25393c;"/><path d="M185.636,104.579l-10.5,0l0,-9.5" style="fill:none;stroke-width:4px;stroke-linecap:round;stroke:#25393c;"/><path d="M201.636,104.579l-10.5,0l0,-9.5" style="fill:none;stroke-width:4px;stroke-linecap:round;stroke:#25393c;"/><path d="M217.636,104.579l-9.5,0l0,-9.5" style="fill:none;stroke-width:4px;stroke-linecap:round;stroke:#25393c;"/><path d="M175.136,124.079l0,-10" style="fill:#6aaeb6;fill-rule:nonzero;stroke-width:4px;stroke-linecap:round;stroke:#25393c;"/><path d="M218.136,124.079l0,-10" style="fill:#6aaeb6;fill-rule:nonzero;stroke-width:4px;stroke-linecap:round;stroke:#25393c;"/><rect x="190.636" y="111.079" width="12" height="17" style="fill:#edab61;stroke-width:4px;stroke-linecap:round;stroke:#25393c;"/><rect x="144.636" y="83.079" width="24" height="45" style="fill:#f5cd92;stroke-width:4px;stroke-linecap:round;stroke:#25393c;"/><rect x="224.636" y="83.079" width="24" height="45" style="fill:#f5cd92;stroke-width:4px;stroke-linecap:round;stroke:#25393c;"/><rect x="176.636" y="21.079" width="40" height="9" style="fill:#edab61;stroke-width:4px;stroke-linecap:round;stroke:#25393c;"/><path d="M144.636,94.329l24,0" style="fill:#6aaeb6;stroke-width:4px;stroke-linecap:round;stroke:#25393c;"/><path d="M224.636,94.329l24,0" style="fill:#6aaeb6;stroke-width:4px;stroke-linecap:round;stroke:#25393c;"/><path d="M144.636,105.464l24,0" style="fill:#6aaeb6;stroke-width:4px;stroke-linecap:round;stroke:#25393c;"/><path d="M224.636,105.464l24,0" style="fill:#6aaeb6;stroke-width:4px;stroke-linecap:round;stroke:#25393c;"/><path d="M144.636,116.829l24,0" style="fill:#6aaeb6;stroke-width:4px;stroke-linecap:round;stroke:#25393c;"/><path d="M224.636,116.829l24,0" style="fill:#6aaeb6;stroke-width:4px;stroke-linecap:round;stroke:#25393c;"/><path d="M156.636,83.079l0,45" style="fill:#6aaeb6;stroke-width:4px;stroke-linecap:round;stroke:#25393c;"/><path d="M236.636,83.079l0,45" style="fill:#6aaeb6;stroke-width:4px;stroke-linecap:round;stroke:#25393c;"/><path d="M80.609,95.079l13,0l0,16l10,0l0,8l6,0l0,-41l11,0l0,38l5,0l0,12l-45,0l0,-33Z" style="fill:#6aaeb6;fill-rule:nonzero;"/><path d="M18.609,72.397l0,-22.818l10,0l0,14.25l-10,8.568Z" style="fill:#6aaeb6;fill-rule:nonzero;"/><path d="M7.009,113.079l3.6,0l0,-8l8,0l0,23l-11.6,0l0,-15Z" style="fill:#6aaeb6;fill-rule:nonzero;"/><path d="M80.609,82.079l0,46l-62,0l0,-46" style="fill:#f5cd92;fill-rule:nonzero;stroke-width:4px;stroke-linecap:round;stroke:#25393c;"/><rect x="28.609" y="96.079" width="19" height="32" style="fill:#edab61;stroke-width:4px;stroke-linecap:round;stroke:#25393c;"/><circle cx="64.509" cy="103.679" r="7.9" style="fill:#fff;stroke-width:4px;stroke-linecap:round;stroke:#25393c;"/><path d="M64.509,95.779l0,15.8" style="fill:#f5cd92;stroke-width:4px;stroke-linecap:round;stroke:#25393c;"/><path d="M72.409,103.679l-15.8,0" style="fill:#f5cd92;stroke-width:4px;stroke-linecap:round;stroke:#25393c;"/><path d="M18.609,70.579l0,-21l10,0" style="fill:#6aaeb6;fill-rule:nonzero;stroke-width:4px;stroke-linecap:round;stroke:#25393c;"/><path d="M7.009,113.079l3.6,0l0,-8l6,0" style="fill:none;stroke-width:4px;stroke-linecap:round;stroke:#25393c;"/><path d="M7.009,82.079l42.8,-36.5l42.7,36.5" style="fill:#6aaeb6;fill-rule:nonzero;stroke-width:4px;stroke-linecap:round;stroke:#25393c;"/><path d="M82.609,95.079l11,0l0,16l10,0l0,8l6,0l0,-41l11,0l0,38l5,0l0,4" style="fill:none;stroke-width:4px;stroke-linecap:round;stroke:#25393c;"/><path d="M7.009,128.079l118.6,0" style="fill:#f5cd92;stroke-width:4px;stroke-linecap:round;stroke:#25393c;"/>
    </symbol>
    <symbol id="svg-swimming-pool" viewBox="0 0 131 111">
      <rect x="5.662" y="18.525" width="119.9" height="91.7" style="fill:#355b60;"/><rect x="5.662" y="18.525" width="119.9" height="31.7" style="fill:#edab61;"/><path d="M32.262,72.225c0,6.8 -6.2,12.3 -13.8,12.3c-7.6,0 -13.8,-5.5 -13.8,-12.3" style="fill:#6aaeb6;fill-rule:nonzero;stroke-width:4px;stroke:#25393c;"/><path d="M59.862,72.225c0,6.8 -6.2,12.3 -13.8,12.3c-7.6,0 -13.8,-5.5 -13.8,-12.3" style="fill:#6aaeb6;fill-rule:nonzero;stroke-width:4px;stroke:#25393c;"/><path d="M87.562,72.225c0,6.8 -6.2,12.3 -13.8,12.3c-7.6,0 -13.8,-5.5 -13.8,-12.3" style="fill:#6aaeb6;fill-rule:nonzero;stroke-width:4px;stroke:#25393c;"/><path d="M115.262,72.225c0,6.8 -6.2,12.3 -13.8,12.3c-7.6,0 -13.8,-5.5 -13.8,-12.3" style="fill:#6aaeb6;fill-rule:nonzero;stroke-width:4px;stroke:#25393c;"/><path d="M70.262,50.225c0,6.8 -6.2,12.3 -13.8,12.3c-7.6,0 -13.8,-5.5 -13.8,-12.3" style="fill:#6aaeb6;fill-rule:nonzero;stroke-width:4px;stroke:#25393c;"/><path d="M97.862,50.225c0,6.8 -6.2,12.3 -13.8,12.3c-7.6,0 -13.8,-5.5 -13.8,-12.3" style="fill:#6aaeb6;fill-rule:nonzero;stroke-width:4px;stroke:#25393c;"/><path d="M125.562,50.225c0,6.8 -6.2,12.3 -13.8,12.3c-7.6,0 -13.8,-5.5 -13.8,-12.3" style="fill:#6aaeb6;fill-rule:nonzero;stroke-width:4px;stroke:#25393c;"/><path d="M40.562,95.925c0,6.8 -6.2,12.3 -13.8,12.3c-7.6,0 -13.8,-5.5 -13.8,-12.3" style="fill:#6aaeb6;fill-rule:nonzero;stroke-width:4px;stroke:#25393c;"/><path d="M68.262,95.925c0,6.8 -6.2,12.3 -13.8,12.3c-7.6,0 -13.8,-5.5 -13.8,-12.3" style="fill:#6aaeb6;fill-rule:nonzero;stroke-width:4px;stroke:#25393c;"/><path d="M95.862,95.925c0,6.8 -6.2,12.3 -13.8,12.3c-7.6,0 -13.8,-5.5 -13.8,-12.3" style="fill:#6aaeb6;fill-rule:nonzero;stroke-width:4px;stroke:#25393c;"/><path d="M123.562,95.925c0,6.8 -6.2,12.3 -13.8,12.3c-7.6,0 -13.8,-5.5 -13.8,-12.3" style="fill:#6aaeb6;fill-rule:nonzero;stroke-width:4px;stroke:#25393c;"/><path d="M21.662,74.525l0,-60.7c0,-5.5 4.4,-10.3 9.9,-10.3l8.1,0" style="fill:none;stroke-width:4px;stroke:#25393c;"/><path d="M42.832,74.525l0,-60.7c0,-5.5 4.4,-10.3 9.9,-10.3l8.1,0" style="fill:none;stroke-width:4px;stroke:#25393c;"/><path d="M22.662,20.525l20,0" style="fill:#6aaeb6;fill-rule:nonzero;stroke-width:4px;stroke:#25393c;"/><path d="M22.662,35.089l20,0" style="fill:#6aaeb6;fill-rule:nonzero;stroke-width:4px;stroke:#25393c;"/><path d="M22.662,49.653l20,0" style="fill:#6aaeb6;fill-rule:nonzero;stroke-width:4px;stroke:#25393c;"/><path d="M22.662,64.216l20,0" style="fill:#6aaeb6;fill-rule:nonzero;stroke-width:4px;stroke:#25393c;"/><path d="M5.662,18.525l10,0" style="fill:#6aaeb6;fill-rule:nonzero;stroke-width:4px;stroke:#25393c;"/><path d="M51.662,18.525l61,0" style="fill:#6aaeb6;fill-rule:nonzero;stroke-width:4px;stroke:#25393c;"/>
    </symbol></svg>