<svg xmlns="http://www.w3.org/2000/svg" style="width:0; height:0; visibility:hidden;">
  <defs>
      <filter id="dropshadow" height="64"><feGaussianBlur in="SourceAlpha"/><feColorMatrix in="SourceGraphic" values="0 0 0 0 0 0 0 0 0 0 0 0 0 0 0 0 0 0 .75 0"/><feOffset dx="2" dy="2" result="offsetblur"/><feMerge><feMergeNode/><feMergeNode in="SourceGraphic"/></feMerge></filter>
  </defs>
    <symbol id="icon-address" viewBox="0 0 20 26">
      <path d="M9.902 6.32c-1.064-.02-1.962.347-2.71 1.098-.746.732-1.12 1.61-1.12 2.654 0 1.043.374 1.92 1.12 2.672.748.732 1.646 1.098 2.71 1.098s1.962-.366 2.727-1.098c.746-.75 1.12-1.63 1.12-2.672 0-1.044-.374-1.922-1.12-2.654-.766-.75-1.664-1.117-2.728-1.1z" stroke-width="2"/><path d="M15.637 4.288C14.067 2.768 12.18 2 9.977 2c-2.205 0-4.09.77-5.642 2.288C2.765 5.808 1.982 7.655 2 9.834c0 1.445.355 2.745 1.047 3.916.037.055.093.128.15.22L9.826 24l7.043-10.158c.728-1.19 1.102-2.526 1.102-4.008 0-2.18-.785-4.027-2.335-5.546z" stroke-width="2"/>
    </symbol>
    <symbol id="icon-arrow-small-left" viewBox="0 0 40 40">
      <path d="M40 40V0H0v40h40zM10.682 19.17c.06-.13.13-.254.217-.37.075-.1.1-.12.187-.214l13-13c.094-.087.114-.11.215-.188a1.997 1.997 0 0 1 2.88 2.683c-.08.123-.17.23-.27.334L15.33 20l11.586 11.586.098.104c.08.1.102.123.17.23a2.002 2.002 0 0 1 .313 1.223 2.012 2.012 0 0 1-1.164 1.675c-.172.08-.357.135-.545.162-.126.018-.158.015-.285.02l-.143-.005a2.465 2.465 0 0 1-.42-.076 2.034 2.034 0 0 1-.637-.318c-.1-.076-.12-.1-.215-.188l-13-13c-.033-.035-.066-.068-.098-.104a2.01 2.01 0 0 1-.305-2.14z"/>
    </symbol>
    <symbol id="icon-arrow-small-right" viewBox="0 0 40 40">
      <path d="M0 0v40h40V0H0zm29.255 20.958c-.067.126-.15.244-.243.353-.03.036-.064.07-.098.105l-13 13c-.094.087-.114.11-.215.188a1.992 1.992 0 0 1-1.058.393c-.046 0-.094.002-.142.004-.127-.005-.16-.002-.285-.02a1.973 1.973 0 0 1-.546-.162 1.968 1.968 0 0 1-.48-.308 2.02 2.02 0 0 1-.685-1.368 2 2 0 0 1 .313-1.223c.068-.107.09-.13.17-.23l.098-.104L24.672 20 13.086 8.414a2.002 2.002 0 0 1 .215-3.016c.153-.112.322-.204.5-.27a1.995 1.995 0 0 1 1.262-.045c.23.066.446.174.638.316.1.076.12.1.215.188l13 13c.087.094.11.114.188.215a2.015 2.015 0 0 1 .152 2.157z"/>
    </symbol>
    <symbol id="icon-big-arrow" viewBox="0 0 60 180">
      <path d="M54.5 174.5L5.5 90l49-84.5" stroke-width="6"/>
    </symbol>
    <symbol id="icon-close-square" viewBox="0 0 40 40">
      <path d="M0 0v40h40V0H0zm34.414 31.586a2 2 0 0 1-2.828 2.828L20 22.828 8.414 34.414c-.39.39-.902.586-1.414.586s-1.024-.195-1.414-.586a2 2 0 0 1 0-2.828L17.172 20 5.586 8.414a2 2 0 1 1 2.828-2.828L20 17.172 31.586 5.586a2 2 0 1 1 2.828 2.828L22.828 20l11.586 11.586z"/>
    </symbol>
    <symbol id="icon-close" viewBox="0 0 20 20">
      <path d="M3 3l14 14M17 3L3 17" stroke-width="4"/>
    </symbol>
    <symbol id="icon-drop-shadow" viewBox="0 0 0 0">
      
    </symbol>
    <symbol id="icon-facebook" viewBox="0 0 34 34">
      <path d="M32 32h-8.658V18.83h4.122l.188-3.972h-4.31v-2.9c0-1.095.23-1.754 1.66-1.754 1.323 0 2.535.012 2.535.012l.093-3.708s-1.188-.154-2.795-.154c-3.97 0-5.692 2.447-5.692 5.112v3.392h-2.916v3.97h2.916V32H2V2h30v30z" stroke-width="2"/>
    </symbol>
    <symbol id="icon-mail" viewBox="0 0 30 26">
      <path d="M2 4.06v17.875M28 21.935V4.06" stroke-width="2"/><path d="M13.73 14.53c.74.626 1.8.626 2.54 0 2.366-1.998 7.533-6.36 11.098-9.373a1.82 1.82 0 0 0 .533-1.974C27.66 2.473 27.014 2 26.29 2H3.71c-.723 0-1.37.474-1.61 1.183-.244.71-.03 1.5.532 1.974L13.73 14.53z" stroke-width="2" stroke-linecap="round"/><path d="M13 14L2.68 20.676c-.424.274-.68.744-.68 1.248 0 .142.015.28.048.416.008.026.02.046.027.074.032.108.064.213.116.317.008.01.016.017.02.028.12.233.286.45.504.634a2.723 2.723 0 0 0 .36.25c.116.068.235.118.358.165.02.01.04.02.06.027.115.044.237.07.36.098l.096.024c.162.027.325.044.487.044H25.56c.166 0 .33-.017.488-.044.032-.007.063-.017.095-.024.123-.027.25-.054.365-.098a.386.386 0 0 0 .06-.027 2.425 2.425 0 0 0 .376-.178 2.146 2.146 0 0 0 .842-.864c.007-.015.015-.025.02-.035.05-.1.082-.208.118-.316.004-.028.016-.048.024-.074a1.81 1.81 0 0 0 .052-.416c0-.504-.256-.974-.68-1.248L17 14" stroke-width="2" stroke-linecap="round"/>
    </symbol>
    <symbol id="icon-menu" viewBox="0 0 20 20">
      <path d="M3 4h14M3 10h14M3 16h14" stroke-width="4"/>
    </symbol>
    <symbol id="icon-phone" viewBox="0 0 26 26">
      <path d="M23.282 3.777l-.617-.618c-.76-.76-1.86-1.164-3.18-1.164-3.26 0-7.622 2.34-11.388 6.105C2.63 13.568.46 19.97 3.157 22.667l.616.618a2.43 2.43 0 0 0 1.728.712c.65 0 1.265-.252 1.725-.712l2.47-2.473a2.435 2.435 0 0 0 0-3.446l-.616-.618c-.66-.658-.356-2.368 2.47-5.198 2.406-2.405 3.8-2.764 4.418-2.764.325 0 .58.097.778.295l.617.617c.922.92 2.532.924 3.45 0l2.47-2.47c.462-.46.717-1.075.717-1.727 0-.65-.255-1.263-.718-1.723z" stroke-width="2"/>
    </symbol>
    <symbol id="icon-process" viewBox="0 0 34 34">
      <path d="M28 17c0 6.07-4.93 11-11 11M6 17c0-6.07 4.93-11 11-11M23 6l-6 4V2l6 4zM11 28l6-4v8l-6-4z" stroke-width="2"/>
    </symbol>
    <symbol id="icon-send" viewBox="0 0 34 34">
      <path d="M31.668 2l-29 21h10v9l19-30zM31.668 2l-2 30-12.5-7M12.668 23l19-21" stroke-width="2"/>
    </symbol>
    <symbol id="icon-warning" viewBox="0 0 34 34">
      <path d="M17 4l14 26H3L17 4zM17 12.5V22M17 26.5V26" stroke-width="2"/>
    </symbol></svg>